<svg xmlns="http://www.w3.org/2000/svg" xmlns:xlink="http://www.w3.org/1999/xlink" width="242" height="198" viewBox="0 0 242 198">
  <defs>
    <linearGradient id="linear-gradient" x1="0.5" y1="-0.234" x2="0.5" y2="1" gradientUnits="objectBoundingBox">
      <stop offset="0" stop-color="#1b1464"/>
      <stop offset="1" stop-color="#ca3182"/>
    </linearGradient>
    <clipPath id="clip-governorate">
      <rect width="242" height="198"/>
    </clipPath>
  </defs>
  <g id="governorate" clip-path="url(#clip-governorate)">
    <g id="governorate-2" data-name="governorate" transform="translate(14.415 -11.553)">
      <path id="Path_65504" data-name="Path 65504" d="M123.572,231.366h.042v-.042h-.042ZM124.5,230.485Zm1.679-1.8v.042h-.042v.042h.04v-.082ZM126.175,228.684ZM126.8,228.055ZM126.846,228.055ZM126.888,228.013ZM127.384,227.383Zm.082-.042V227.3h-.042ZM127.466,227.3ZM127.508,225.915ZM127.8,225.5Zm15.236-20.611,5.623,8.813h-.042v.042h-.126v.042h-.421v-.042h-.248V213.7H147.7v-.042h-.126v-.042h-.121v-.042h-.168v-.042h-.054v-.042h-.042v-.047h-.337v-.047h-.3v-.04h-.463v-.042h-.713v-.04h-.295v.042h-.126v.042h-.042v.042h-.082v.082H144.7v.042h-.126v.042h-.025v-.042h-.05v.042h-.042v-.042h-.168v.042h-.285v.042h-.042v.042h-.379v-.042h-.248v-.042h-.248v-.042h-.347v-.042h-.5v-.045h-.042v.042h-.337v-.042h-.042v.042h-.456v.042h-.042v.042h-.168v.042h-.052v.042h-.126v.042h-.126v.042h-.124v.042h-.042v.082h-.042v.042h-.084v.042h-.042v.042h-.082v.042h-.126v.042h-.042v.042h-.126v.042h-.05v-.042h-.052v-.042H140v.042h-.042v.042h-.211v.042h-.126v-.042h-.419v-.042h-.082v-.042h-.042v.042h-.03v-.042h-.206v.042h-.168v-.042h-.466v-.042h-.842v-.042h-.126v.042h-.082v-.042h-.042v.042h-.211v.042h-.376v.042h-.248v.042H136.2v-.042h-.042v.042h-.377v.042h-.421v.042h-.3v.042h-.292v.042h-.211v.042h-.216v.042h-.163v.042h-.211v.042h-.211v.042H133.6v.042h-.215v.042h-.163v.042H133.1v.042h-.163v.042h-.126v.042h-.126v.042h-.126v.042h-.082v.042h-.126v.042h-.131v.042h-.082v.042h-.082v.042h-.144v.042h-.082v.042h-.082v.042h-.082v.042h-.082v.042H131.5v.042h-.042v.042h-.084v.042h-.082v.042h-.082v.042h-.084l-.042.042h-.042v.042h-.126v.042h-.126v.042h-.082v.042h-.042v.163h-.035v.042h0v.042h-.042V216h.042v.082h-.042v.126h-.042v.082h0v.042H130.5v.126h0v.042h.042v.163H130.5v.163h-.042v.042h-.042v.042h-.082v.042h-.064v.042h-.139v.042h-.082v.082h-.037v.042h-.042v.082h-.042v.042h-.045v.042h-.042v.126H129.8v.461h.084v.042h.042V218h-.082v.082h-.042v.042h.042v.082h-.084v.042h-.042v.042h.042v.126h-.082v.042H129.6v.042h-.126v.042h-.032v.042h-.084v.042h-.042v.042h-.042v.042h-.129v.042H129.1v.042l-.042.042h-.126v.042h-.082v.042h-.082v.042h-.059V219h-.126v.126H128.5v.042h-.04v.082h-.082v.042H128.3v.168h-.082v.042h-.064v.042h-.042v.04h-.042v.042h-.042v.042h-.082v.042h-.082v.042h-.082v.042h-.042v.042h-.082v.042h-.042v.042h-.042V220h-.082v.082h0v.211h-.042v.042h-.082v.082h0v.042h-.042v.042h-.042v.042h-.042v.042H127.2v.042h-.042v.082h-.042v.042h-.052v.126H127v.042h-.042v.082h-.04v.126h-.042v.126h-.04v.082h-.042v.208h-.04v.168h0v.042h.042v.042h0v.042h0v.126h.042v.042h.042v.587h.037v.082h.042v.082H127v.082h.042v.042h.042v.042h.042v.042h.037v.042h.248v.042h.295v.042h.042v.042h.042v.042h.042v.082h.042v.126h0v.042h.042v.082h.042v.082H128v.082h.042v.042H128v.042h.042v.042h.042v.042h.042v.082h.042v.126h.084v.042h.042v.042h-.084v.042h-.042v.082h0v.082h0v.042h0v.042h.042v.042h-.084v.042h-.042v.042h.042v.042h-.042v.042h-.03v.042h.042v.211h-.042v.042h-.042v.042h-.042v.042h-.126v.126h0v.042H127.8v.168h.042v.042H127.8v.082h-.042v.042h-.042v.042h-.042v.042h-.042v.042h-.042v.042h-.042v.042h.042v.042h-.042v.042h-.042v.042h0v.111h-.042v.082h.042v.042h-.042v.082H127.3v.042h-.042v.042h-.042v.042h-.05v.082h-.042v.082h-.042v.163h-.042v.126h.042v.042h.042v.042h0v.042h.042v.042h.042v.042h0v.055h.042v.042h.042v.082h.042v.042h.084v.042h.042v.126h-.042v.082h-.082l.042.042h-.084v.082h-.042v.126h-.042v.042h-.045v.042h-.082v.042h-.094v.042h-.042v.042h.042v.042h-.042v.042h-.082v.042h0v.042h-.04v.042h-.082v.042h-.124v.042h-.082v.042h-.042v.042h-.042v.042h-.032v.126h-.082v.126h0v.082h-.084v.082h-.082v.082h-.042v.211h0v.168h.042v.064h-.042v.042h-.206v.042h-.3v.042h-.2v.042h-.082v.042h-.082v.027h-.057v.082h-.042v-.042h-.04v.126h-.042v.042h-.042v.042h0v.042H125v.042h-.042v.042h0v.082h-.082v.042h-.042v.042h0v.042h0v.042h-.042v.042h0v.042h-.082v.082h-.042v.042h-.042v.082h-.139v.042h0v.042h0v.042h-.05v.082H124.4v.042h-.032v.042h-.082v.042h0v.042h0v.042h-.042v.05h-.082v.042h-.042v-.042h-.042v.042h-.042v.042h-.042V231h.082v.042h-.084v.126h-.208v-.042h-.055v.042h.042v.126h-.042v.042h-.082V231.3H123.6v.082h-.04v.042h-.082v-.042h-.042v.042h.042v.042h-.126v.042h-.082v.042h0v.042h-.042v.042h0v.042h-.042v-.042h-.042v.082h-.126v.042h-.126v.126h-.042v.087h0v.042h-.082v.042h-.042v.042h-.042v-.042h.042v-.126h.042v-.042h-.042V231.8h0v-.042h-.082v-.04h-.082v-.042h-.394v.042h-.042v.082h-.042v.082h-.042v.042h.042v.042h-.042v.042H122v.126h-.042v.042h-.04v.042h-.208v.042h0v.042h-.042v.042h-.042v-.042h-.042v.042H121.5v.042h-.087v-.032h-.082v-.042h-.116v.206h-.082v.042h-.124v.042h-.092v-.042h0v-.042h-.042v-.082H120.8V232.4h-.042v-.04h-.032v-.042h-.042v-.04h0v.042h-.059v.248h-.042v.042h-.042v.042h-.082v.042h.042v.042h0v.042h-.124v.042h-.082v-.042h-.084v.042h-.042v-.042h-.042v.042h-.042v-.082h-.042v.042h-.084v-.042h-.05v.124h-.084v.042h-.089v-.042h0v-.042h-.042v.082h0v-.042h-.042v-.042h-.042v.042h-.042v-.042h-.079v.042h-.074v-.042h-.042v.042h-.084v-.042h-.047v.042h-.042v.042h-.082v-.042h-.163v.042h0v.042h-.225v.126h.042v.042h-.042v.042h-.042v.042h-.042v-.042H118.6v.042h-.042v-.042h-.082v.042h0v.082h-.082v.042h-.042v-.042h.042V233.2h-.082v-.042h-.04v.042h0v-.042h-.042v-.042h-.042v-.042h-.04v-.042h-.084v-.042h-.042v-.042h-.082v.082h-.082v.042h-.042v.042h-.082v-.042h.042v-.042h-.042v-.042h-.042v-.042h-.082v-.082h-.082v.042l-.042-.042v.042h-.042v.042H117.4v.042h-.27v-.042h-.037v.042h0v-.126h-.042v-.042h-.082v.042h-.087v-.126h-.042v-.042H116.8v.042h-.04v-.042h-.126v.042h-.042v-.042h-.079v.042h-.042v-.042h-.042v-.126h-.042v-.047h-.047v.042H116.3v-.042h-.032v.042h-.05v-.094h-.042v-.082h.042V232.3h.05v-.082h.082v-.042H116.3V232.1h-.04v-.082h0v-.082h-.042v-.082h-.042v-.042H116.1v-.042h-.042v-.042h-.042v-.042h-.126l-.042-.042h-.082V231.6h-.215v-.042h-.176v-.042h-.211v-.04h-.421v-.042H114.7v.042h-.126v-.042h-.248v.042h-.082v-.042h-.1v-.042h-.163v.042H113.9v-.042h-.248v-.042h-.126v.042H113.4v-.042h-.5l-.042-.042h-.084v.042h-.248v.042h-.042v-.042h-.059v.042l-.042-.042v-.042h-.04v.042h-.755v.042h-.042v.042h-.082v-.082h-.082v.042h-.042v.042H111.3v-.042h-.042v-.042h-.082v-.042h-.084v.042h-.042v-.042h-.126v.042h-.052v-.042h-1.511v.042h-.5v.042h-.042v-.042h-.042v-.042h-.042v.042h0v.082h0v-.042h-.084c-.369-.02-.087.062-.5.042h-.067v.042H107.8v.042h-.042c-.369-.02-.089.064-.5.042h-.042v.042h-.337v.042h-.337v.042h-.334l-.042.042h-.206v.042h-.248l-.042.042h-.248l-.042.042h-.248v.042h-.248v.042h-.337v.042H104.3v.042h-.337v.042h-.211v.042h-.126l-.042.042H103.5l-.042.042h-.082l-.042.042H103.3v.042h-.082v.042h-.042v.042h-.042v.042h-.042v.042h-.042v.042H103v.025h-.042v.082h-.1v.042h0v.082h-.042v.082h.042v.168h-.082v.042h-.042v-.042H102.7v.042h.126v-.042h.042v-.042h.042v-.042h.042v-.042h.168l.042-.042h.082l.042.042h-.042l-.211.082-.042.042h-.082v.042h0v.126h.042v-.042l.042.042h.042v-.042h-.042v-.042h.042l.042.042h.042v-.042l.042.042h.042l.082-.042.042-.042.042-.042.042-.042h.042v-.042h.042l-.082.042-.042.042-.082.082h-.042v.042h-.042v.042h-.042v.042h-.126v.082H102.7v.042h-.042v.042h-.141v.042h-.042v.126h-.04v.042h-.042v.042h-.121v.042h-.042v.042h-.042v-.042h-.042v-.042h-.082v.042H101.9v.042h-.042v.163h-.042v.042h-.084v-.042h-.042v.042h-.126l-.042-.042h-.337v.042h-.211l.042.042h-.163v-.02h-.419v.042h-.211v.042h0v.042h-.168v.042h-.329v.042h-.079v-.047H99.6v.042H99.56v-.042h-.211v.042h-.268l-.042.042h-.208l-.042.042h-.248v.042h-.163v.042h-.042v.042H98.21v.042h-.126l-.042.042v.045h.042v.042h-.042v.042H98v.042h-.042v.042H97.91v.042h-.042v.042h-.042v.042h-.082v.042H97.7v.082H97.66v.042h-.082v.042H97.5v.042h-.082v.082h-.052v.042h-.082v.042h-.042v.042h-.047v.042h.042v.042h-.042v-.042H97.15v.042h-.126v.082h-.042v.042H96.9v.042h-.2v.082h-.042v.042h-.042v.042H96.57v.042h-.042v.082h-.042v.082h-.037v.082h.042v.082h.042v.126h-.042v.042h-.082v.042h-.248v.042h-.126v.042H95.98l-.042.042H95.9v.042h-.163v.042h-.163v.042h-.139v.082h-.211v.042h-.211v.042H94.93v.042H94.8v.042h-.04v.042h0v.042h-.05v-.042h-.208V236.7h-.04v-.042h-.1v.042h-.04v-.042h-.163v-.042h-.042v-.042h-.077v.042H94v-.042h-.032v.042H93.93v-.042h-.042v.042h-.082v-.042h-.042v-.042h-.042v.042H93.64v-.042h-.164v-.042h-.419v.042h-.1v-.042h-.042v.042h-.248v.042h-.121v.042h-.206v.042H92.3v-.042h-.168v.042h-.042v.042h-.05v.042h-.05v.042h-.05v-.042h-.168v.042h-.248v.042h-.163v.042h-.218v.057h-.211v.042h-.082v.042h-.082v-.042H90.6v.042h-.421v.042h-.211v.042h-.163v.042h-.045v.042h-.047v.042H89.55v.042h-.213v.042h-.072v-.025h-.126v.042h-.126v.042h-.126v.042h-.295v.042H88.51v.042h-.042v.042h-.047v.042h-.082v.042H88.3v-.042h-.042v.042h-.042v-.042H88.17v.042h-.208v.042h-.183v.042h-.163l-.042.042h-.082v.042h-.248v.042h-.163v.042h-.045v.042h-.042v.042h-.082v.042H86.83v.042h-.042v.042h-.042v-.042H86.7v.042h-.126v.042H86.5v.042h-.082v.042h-.042v.042h-.079v.042h-.082v.042h-.166v.042h-.126v.042h-.082v.042h-.082v.042h-.042v.042h-.042l-.042.042H85.55v.042h-.082v-.035c-1.734-4.023-3.386-8.073-5.157-12.085l-.337-.8-.248-.042-.121-.057h-.082l-.163-.042-.545-.082h-.082l-.042-.082-.042-.082h.042l.126-.042v-.042l.042-.042.163-.211.042-.082.126-.126.042-.126.126-.126v-.042l.082-.126-.211-.463c-4.533-10.758-9.115-21.5-13.638-32.273l-.419-.966.211-.082q28.6-9.413,57.2-18.8l.419-.126,8.1,13.6v.042l3.483,7.892.379.837,2.14,4.83,1.719,3.946,1.511.743,2.725,1.385ZM138.969,214.077ZM129.858,217.391ZM144.545,219.826Zm-.042.042v.042h-.042v-.042ZM127.339,220.5ZM127.339,220.5ZM127.213,220.624ZM126.965,221Zm15.821.082v.082h.042v.042h.042v.337h.042v.208h.042v.082h.163v.042h.082v.042h.166v.042h.042v-.042h.206v.042h-.042v.082h-.042v.042h-.042v.082h-.042v-.042h0v.042h-.082v-.042h0v.042h-.124v.042h-.114v.042h-.042v.042h-.04v.042h-.082v.042h-.084v.042h-.042v.042h-.082v.042h-.042v-.042h-.082v.042h-.042v-.042h0v.042h-.042v-.042H142.5v.042h-.042v.042h-.042V222.5h-.084v-.042h-.042v.042h-.042v.042h-.042V222.5h0v.042h-.163V222.5h-.082v-.042h-.124v.042H141.8v-.042h-.082v-.042h-.107v.042h-.04v-.042h.042v-.042h-.042v.042h0v-.042h-.082v.042h-.042v-.042h0v-.042h-.04v.042h-.042v-.042h-.042v.042h-.04v-.082H141.2v-.042h-.042v-.042h-.042v.042h-.042v-.126h.042v-.042h0v-.042h-.042l-.042-.042h0v.042h-.082V222h.042v-.042h.042v-.042h.042v-.042h0v-.042h.126v-.042h.079v-.042h.082v-.035h.042v-.042h0v.042h.082v-.042h.168v-.04h-.042v-.042h.042v-.042h.082v.042h.211v-.042h.168V221.5h.042v-.04h.126v-.042h.082v-.042h.082v-.042h.042v-.042h.042v-.042h.042v-.042h.042v-.042h.042v-.042h.042v-.042h.082ZM126.881,221.208ZM148.03,221.837Zm.042.042v.042h0Zm-9.232.082h.082V222H139v.042h.082v.042h.042v.042h.042v.042h.042v.042h.166v.042h.042v-.042h.042v.042h.042v.042h-.042v.042h.042v.082h-.042v.042h-.042v.042h-.042v.042h-.042v.042h-.124v.042h-.042v.042h-.042v-.042h.042v-.042h-.042v.042h-.042v-.074h-.168v.042h-.037v-.042h0v-.042h.082v-.082h0v-.042h-.124v.042h-.032v.042h-.082v-.042h-.084v.042H138.6v-.042h0v-.042h-.082v.042h0v.042h-.042v-.082h0v.042h-.042v-.042h.042v-.042h-.042v-.042h.082v-.042h-.084v-.042h.042v-.042h.042v.042h.082v-.042h.042v-.042h.042V222.1h.042v-.042h.084v-.082h.045Zm9.484.042h.042v.042h.126v.082h.042v.042h.042v.042h0v.042H148.5v.042h0v.042h-.168v-.082H148.2v-.042h-.163v.082H148v-.042h.042v-.082h.082v-.042h.042v-.042h.042v-.082h.126Zm-9.735.126v.042h0ZM147.99,222.424Zm-13.846,0h.042v.042h.042v.082h0v.042h-.082v.042h0v.042H134.1v-.042h-.042v.082h0v.042h.042v.042h-.042v.042h-.042v-.035h-.042v.042h-.082v-.042h0v-.042h.042v-.042h.042v-.082h0V222.6h-.042v-.04h0v-.042h.042v-.042h0v-.042h.042v.042h.042v-.042h.084ZM142.62,222.506Zm-8.422.082v.042h-.042v-.042ZM127.9,225.149ZM127.862,225.4ZM127.23,226.952ZM127.478,227.247ZM127.478,227.329ZM127.436,227.371ZM126.344,228.629ZM125.967,229.259ZM125.043,229.754ZM125,229.8ZM124.077,231.054ZM121.434,232.357ZM120.8,232.357ZM120.845,232.4ZM121.224,232.441ZM120.887,232.484ZM120.639,232.526ZM120.344,232.773ZM120.344,232.773Zm-3.022.295h.042v.042h-.042v-.032h-.042v-.042h.042v.042Zm1.05.211h.042v.045h-.042Z" transform="translate(-10.222 -29.027)" fill="#dbad1f"/>
      <path id="Path_65505" data-name="Path 65505" d="M166.8,135.389l-.964,3.4-.379,1.216,10.785,3.735,6.5,1.258,9.819,1.93.671-5.246.84-.924.082-.042,3.777-1.3-.924-3.609.421-.082,1.008-.163,7.721,7.386v.463l-.082,1.93h1.845v.163h.042v.042h.042v.126h.126v.082h-.042v.042h-.042v.211h-.042v.042h-.042v.042h-.035v.042h-.042v.042h-.042v.042H207.8v.042h-.047v.042h-.042v.082h-.032v.042h-.042v.042H207.6v.042h-.042v.042h-.037v.042h-.042v.042h-.042v.042h-.042v.042h-.042v.042h-.042v.082h-.042v.042h-.042v.082h-.042v.042h-.042v.126H207.1v.082h-.042v.126h-.042v.126h-.042v.379h-.042v.042h-.042v.042h.042v.042h-.042v.211l.042.042v.126h-.082v.042h-.042v.042h-.042v.042h-.042v.042h-.042v.082l-.042.042h.163v-.035h.042v.042h.042v.295h-.042v.042h.042v.168h.042v.419h.042v.211h-.042v.042h-.042v.042h-.163v.042h-.211v.042h-.126V150h-.042v.042H206.3v.042h-.042v.042h-.05v.082h-.082v.027h-.042v.042l-.042.042v.042H206v.042h-.052v.042h-.042v.042h-.042v.082h-.042v.042h-.042v.042h-.126v.042h-.042v.042h-.042v.042h-.042v.042h-.074v.042h-.082v.042h-.042l-.042.042h-.042v.042h-.04l-.042.042h-.042v.042h-.082v.042H205v.042h-.04v.042h-.082v.042h-.042v.042h-.042v.042h-.042v.042h-.042v.042h-.057v.042h-.042v.042h-.04v.042h-.082v.042h-.042v.042h0v.082h-.04v.082h-.042v.042h-.042v.042h-.042v.042h-.064v.042l-.042.042v.042h-.042v.042h-.042v.042h-.042v.082H204v.082h-.037v.042h.042v.042h0v.042h.042v.042h-.042v.211h-.042v.126h-.042v.126h-.042V153h-.042v.082H203.8v.042l-.042.042v.082h-.037v.126h.042v.082h-.042v.042h-.042v.042h-.042v.228h-.042v.042h-.042v.042h-.042v.082h-.037v.082h-.042v.042h-.042v.042h-.042v.042H203.3v.082h-.042v.126h-.037v.126h-.042v.211h-.042v.248h-.047v.082l.042.042v.082h.042v.082h-.042v.082h.042v-.042h0v.082h-.042v.042h-.042v.082h-.042v.163h-.04v.126h0v.042h0v.082h-.042v.379h0v.082h-.04v.042h-.082v.042H202.8v.126h-.042v.042h-.042v.042h-.082l-.042.042v.082h0v.042h-.082v.082h-.248v.042h-.082v.082h-.042v.042h-.163v.082h0v.042h0v.042h0v.042H201.9v.042h-.082v.082h-.042v.042h-.042v.082h-.042v.042h-.042v.042h-.042v.042h-.042v.035h-.042v.042h-.059v.042h-.042v.042h-.04v.082h-.334v-.042h-.082v.042h-.082v-.042h-.295v-.082h-.042v-.042H200.5v-.042h-.082v-.042h-.042v.042h-.082v-.042h-.042v-.042h-.082v-.042h-.042V157.5h-.082l-.042-.042h-.082v-.037h-.042v-.042H199.8v-.042h-.082l-.042-.042H199l-.042.042H198.8v.042h-.126l-.042.042h-.042v.042H198.5l-.042.042h-.082v.042h-.126V157.5H198.1v-.042h-.082v-.042h-.082v-.082H197.9V157.3h-.082v-.042h-.082v-.042h-.126v-.04h-.082v-.042h-.208v-.042h-.082v-.04h-.295v-.042H196.9v-.04h-.042v-.042h-.082v-.04h-.042V156.8h-.042v-.126h0v-.082h.042v.042h-.042v.042h.042v-.042h.042v-.042h-.042v-.126h-.042V156.3h.042v-.042h.042v.042h.042v-.042h.042v-.042h.042v-.168h.042V156h.042v-.042h.042v-.042h.042v-.248h0v-.208h.211v-.082h.042V155.3h0v-.052h.042v-.059h.042v-.126h.042v-.082h.042V154.9h.042v-.082h.042v-.292h.042v-.079h.042v-.082h.042v-.082h.042v-.042h.124l.042-.042v-.042h.082v-.042h.082v-.082h.042v-.082h.042v-.082h.042v-.191h.042V153.6h.027v-.042h-.042v-.124h.042v-.042h-.042v-.082h-.163v.082h-.057v-.042l-.042-.042h.042v-.168h-.042v-.042h-.04v-.042h-.082v-.042h-.069v-.042h-.082v-.042h-.126v-.042h-.126v-.042h-.163V152.8h-.042v-.126h-.042v-.042h-.042v-.042h-.042v-.082h-.042v-.042h-.126v.042h-.126v.042h-.082v.042h-.168v.082h-.042v.04h-.055v.042h-.042v.042h-.208v.042h-.126v.042h-.05v.042H196v.082h-.042v.042h-.042v.042h-.042l-.042.042h-.037l-.042.042h-.042l-.042.042h-.042v.042H195.5v.042h-.082v.042h-.042v.042h-.082v.042h-.082v.042h-.042v.042h-.082v.042h-.126l-.052.04h-.082v.042h-.042v.042H194.7v.042h-.082l-.042.042h-.042v.042h-.042v.042h-.042v.042h-.042v.042h-.042v.082h-.062v.163h-.042v.042h.042v.082h.042v.126h-.042v.126h-.042v.082h-.042v.082h.042v.082h-.042v.042h-.042v.082h-.042V155h.042v.042h.042v.042h-.042v.211h-.042v.126h.042v.163h-.042v.082h0v.042H194.1v.042h-.124v.042h-.042v.042h-.082v.082h-.037v.042h-.168V156h-.168v.042h-.126v.042h-.094v.042h-.126v.042h-.082v.042h-.126v.042h-.082v.042h-.082v.042h-.082v.042h-.042l-.042.042h-.042v.042h-.082v.042h-.042v.042h-.082v.042H192.3v.042h-.042v.042h-.042v.042h-.082v.042h-.042v.042h-.042v.082h-.042v.042h-.042v.082h-.042v.042h-.042v.126h-.042v.295H191.8v.042h.042v.211h.042v.082l.042.042v.042h.042v.042h.082v.042h.163v.042h.124v.042h.082v.082h-.042v.082h-.042v.082h-.042v.126h-.042v.042h-.042v.042h-.042v.166h-.042v.042h-.045v.042h-.042v.042h-.082v.042h-.082v.042h-.082v.042h-.082v.042h-.042l-.042.042h-.042v.042H191.5v.042h-.082v.042h-.082v.042h-.042v.042h-.082v.042h-.042v.042h-.082v.042h-.082v.042h-.042v.042h-.082v.042h-.042v.042h-.082v.042h-.042v.042h-.082v.042h-.042v.042h-.042v.042h-.042v.042h-.042v.042h-.042v.042h-.042v.042h-.04v.042H190.3v.042h-.042v.042h-.042v.042h-.042v.042h-.042v.032h-.077v.042h-.042v.126h-.04v.042h0v.082h.042v.042h-.042v.082h-.042v.042h-.04v.042h-.042v.042h-.04v.042h-.042v.042h-.042v.042h-.042v.042h-.042v.082H189.6v.042h-.042v.168h-.042v.211h-.042v.082h-.042v.168h-.042v.082h.042v.168h0v.082h.042v.334h.042v.042h.042v.042h.042v.042h.082v-.037h.042v.042h.042v.248h-.042v.376h-.042v.168h-.042v.168h-.04v.211h-.042v.082h-.042v.126h-.042v.163h.042v.042h.042v.126h-.042v.126h-.042v.211h-.042v.082h-.042v.126h-.037v.163h-.042v.082h.042v.5h-.042v.082h-.042v.042h-.042v.042h-.042v.082h-.042v.042H189.1v.082h-.042v.082h-.042v.082h-.042v.163h-.042v.248h-.042v.163h-.037v.082h-.042v.042h-.042v.082h-.042v.082h-.042v.082h-.042v.082h-.037v.082h-.042v.082l-.042.042v.126h.042v.042h.042v.082l-.042.042v.126h-.047v.042l-.042.042v.082h-.04v.126H188.4v.082h-.04v.082h-.042v.082h-.042v.082h0v.126h-.042v.042h-.042v.042h-.042v.042H188.1v.082h-.042v.042h-.042v.126h-.042v.126h.042v.082h-.042v.126h-.042v.042h-.042v.042h-.042v.042h-.042v.042h-.042v.042h-.042v.042h-.042v.042h-.042v.042H187.6v.042h-.042v.042h-.042v.082h-.042l-.042.042v.042h-.06v.042h-.042v.042h-.042v.042l-.042.042-.042.042v.042h-.042v.042h-.037v.042l-.042.042v.042h-.047v.082h-.042v.042l-.042.042v.042l-.042.042v.082l-.042.042v.126h-.042v.629h.042v.126h.084v-.042h.042l.082-.082h.248l.042.042h-.126v-.042h-.042c-.163,0-.082-.042-.211.082h-.037v.042H186.9v.126h.042v.082h.042v.082h.042v.042h.082v.042h.168l.042-.042h.042v-.211h.042v.126h-.037v.042h.042v.042h.042v.042h.042v.042h.04v.042h0v.042h0v.042h.084v-.042h.042v.035h.082V171.8H187.7v-.126h.042v-.295h.082v-.126h0v.042c.02.369-.064.087-.042.5v.042h-.042v.082H187.7v.042h-.042v.379h-.04v.042h-.042v.082h-.042v.082h-.042v.248h.042v.082h0v.211h-.042v.082h-.042v.082h.042v.042h-.042v.082h-.042v.126h-.037v.168h-.042v.163h-.042v.082l-.042.042v.126l-.042.042v.5h.042v.042h.042v.208h.042v.042h.042v.042h.082v.042h.042v.082l.042.042v.042h.082v.042h.042v.126h0v.042h.042v.163h.042v.126h.042v.082h.082v.042h.042v.082h.042v.042h.042v.126h.042v.082h.042v.042h.082v.082l.042.042h0v.168h.042v.082h.042v.082h.042v.168h.032v.126h0v.042h.042v.211h0v.042h.042v.295h-.022v.376h-.042V178h-.042v.082H188.3v.082h-.042v.168h-.042v.126h-.042v.082h-.042v.248h-.042v.248h-.042l.042.042v.163h-.042l.042.042h-.042v.126h.042v.743h0v.042h.042v.211h.042v.082h.042v.042h.042v.042l.042.042v.126l.042.042h0v.211h.042v.126h.042v.168h.042v.082h.042v.082h.042v.082h.042v.042h.042v.082h.042v.042h.042v.042h.163V181.7h.211v.042h.042v.082h.042v.042h.042v.042h.042v.126h0v.248h-.042v.168h-.042v.163h-.042v1.008h.042v.082h.042v.082h.042v.042h.082v.042h.042v-.042h.082v.248h.042v.042h0v.042h0v.042h0v.126h0v.211h.042v.082h.042v.082h.042v.082h.042v.042h.042v.092h.042V185h.126v.042h.126v.082h0v.042h-.082v.042h-.042v.042h-.042v.042h-.042v.042h-.082v.042h-.082v.042H189.6v.042h-.042v.042h-.126v.042h-.042v.042h0v.126h-.037v.042h-.082v.042H189.1v-.042h-.295v.042h-.379v.042h-.211v.042h-.168v.042h-.042v.042h-.042V186h-.042v.042h-.042v.042H187.8v.082h-.082v.042h-.082v.042h-.126v.042h-.042v.042h-.126v.042h-.082v-.042h-.042v.042h-.211v.121h-.082v-.042h-.052v.042H186.2v-.042h-.126v.042H184.15v-.042h-.716v.042h-.082v-.042h-.084v.042h-.042v-.042h-.082v.042h-.755v.042h-.629l-.042.042h-.376l-.042.042h-.369v.042h-.295v.042H180.3v.042H180v.042h-.248v.042h-.248v.042H179.3v.042h-.163v.042h-.186v.042h-.163v.042h-.163v.042H178.5v.042h-.126v.042h-.126v.042h-.168v.042h-.211v.042h-.154v.042h-.168v.047h-.126v.042h-.126v.042h-.168v.042h-.149v.042h-.163v.042h-.163v.042h-.126v.042h-.168v.042h-.211v.042h-.208v.042h-.163v.042h-.126v.042h-.161v.042h-.163v.042h-.211v.042h-.126v.042h-.168v.042h-.126v.04h-.126v.042h-.082v.042H174.4l-.042.042h-.082v.042h-.082v.042h-.126v.042h-.126v.042h-.082v.042H173.7v.042h-.082v.042H173.5v.042h-.082v.042h-.082v.042h-.082v.042h-.042l-.042.042h-.042v.042H173v.042h-.082v.042h-.126v.042h-.082v.042h-.082v.042H172.5v.042h-.126v.042h-.126v.042h-.126v.042h-.136v.042H171.9l-.042.042h-.1v.042h-.082v.042H171.6v.042h-.084v.042h-.126v.042h-.082v.042h-.04l-.042.042h-.042v.042H171.1v.042h-.042v.042h-.082v.042H170.9v.04h-.042v.042h-.082v.04h-.082v.042h-.042v.042h-.082v.042H170.5v.042h-.042v.042h-.04v.042h-.082v.042h-.042v.042h-.04v.042h-.082v.042h-.042v.042h-.082v.042H170v.042h-.042v.042h-.082v.042h-.042v.042H169.8v.042h-.042v.042h-.082v.042h-.042v.042h-.042v.042h-.042v.042H169.5v.082h-.042v.042h-.042v.042h-.042V191h-.042v.042h-.047v.082h-.042v.042H169.2v.082h-.042v.042h-.042v.042h-.042v.042h-.037v.082H169v.042h-.057v.042H168.9v.042h-.04v.042h-.042v.042h-.025v.042h-.042v.042h-.042v.042h-.042v.042h-.042v.042h-.042v.042l-.042.042v.042H168.5v.042h-.042v.042h-.042v.042h-.042v.082h-.042v.042h-.042v.042h-.042v.047H168.2v.042h-.042v.042h-.042v.082h-.042v.042h-.042v.042h-.042v.082h-.042v.042h-.042v.082h-.042v.042h-.042v.042h-.042v.042h-.042v.082H167.7v.042h-.042v.042h-.042v.042h-.06v.042h-.042v.042h-.042v.042h-.042v.042h-.082v.042h-.05v.042h0v.082h-.042v.042h-.04v.082h-.042v.042h-.04v.082h-.042v.082h-.032v.082h-.042v.126h-.042v.126h-.042v.126h-.042v.082h-.042v.082h-.037v.082h-.042v.082h-.042v.126h-.042v.163l.042.042V195l.042.042v.5h.042V196h.042v.419h-.042v.082l-.042.042v.042h-.042v.082h-.042v.082h-.042v.082H166.6v.126h-.037v.082h-.042v.042h-.042v.082h-.042v.082H166.4v.126h-.042v.461h0v.042h-.042v.042h0v.295h.042v.042h0v.334h-.042v.168h-.042v.211h-.042v.211h-.042v.211h-.042v.042H166.1v.082h-.042v.042h-.042v.082h-.042v.211h-.042v.082h-.042v.042h-.05v.082H165.8v.082h-.04v.082h-.042v.042h-.04v.042h-.042v.082h-.04v.082h-.042v.042l-.042.042v.042h-.042v.082h-.042v.042h-.042v.082l-.042.042V201l-.042.042v.126h-.042v.042l.042.042h-.042v.126h-.042v.082h-.042v.126h.042v.042h0v.042l-.042-.042v.042h-.042v.042h-.055v.042h.042v.163h-.042v.042h.042v.082h.042v.126h.042v.419h.042v.168H165.2v.082h-.082v.042H165v.042h-.166v.042h-.082v.042h-.042v.042h-.042v.042h-.042v.082h-.04v.082h-.042v.042H164.5v.082h-.042v.042h-.042v.042h-.079v.042H164.2v.042h-.082v.042h-.082v.042h-.082v.042h-.082v.042h-.082v.042h-.042v.042H163.7v.042h-.042v.042h-.124v.042h-.082v.042h-.042v.042h-.069v.042h-.082v.082h-.082v.042h-.042v.042H163.1v.042h-.042v.042h-.042v.082h-.042v.042h-.042v.042h0v.5h-.042v.042h-.042v.042H162.8v.042h-.042v.042h-.042v.042H162.6v.042h-.04v.042h-.042v.042h-.04v.082h-.042v.042h-.084v.042h-.082v.042h-.082v.082h-.042v.042H162.1v.042h-.042v.042h-.042v.042h-.163v.042h-.082v.042h-.082v.042h-.042v.042h-.042v.042h-.042v.042h-.042v.042h-.042v.042h-.042v.163H161.4v.042h0v.126h-.037v.042h.042v.082h.042v.082h.042v.126h-.042v.126l-5.623-8.813-2.725-1.385-1.511-.743L149.869,192l-2.14-4.83-.379-.84-3.483-7.889V178.4l-8.1-13.6.082-.248.042-.082.295-.882.163-.545c.248-.84.515-1.608.8-2.435l.163-.5.082-.337.082-.248c.594-1.8,1.184-3.629,1.761-5.415l.168-.5.126-.419.163-.5c1.543-4.8,3.128-9.593,4.659-14.394l.126-.337v-.042l9.021-1.258,9.484-1.385,2.938-.419,1.048-.126-.211.587M206.887,148.933ZM206.968,149.143ZM206.926,149.27Zm-.671,1.134v.208H206.2v.126h-.042v.042h-.082v.067h-.082v-.042h.042v-.074h0v-.042h.042v-.126h.042v-.042h.042v-.037h.042v-.042h.042v.042Zm-10.275,2.881h.042v.042h.168v.211h.042v.126h.042v.082h-.042v.042h-.082V153.7h-.042v-.042h-.069v-.042H196v-.042h-.04v-.042h-.042v-.211h0v-.042h.042Zm1.93.211v.082h-.042v.126h-.042v.168h.042v.082h-.042v.082h-.052V153.7h0v.082h.042v-.126h.042v-.126h.042v-.072Zm-2.056.163v.042h0v-.042ZM197.91,153.741ZM197.868,153.783Zm-.042,0h.042v.082h-.042ZM197.989,153.825Zm-.042.042h.042v.126h-.042v.126h-.042v-.295h.042v.042ZM197.821,154.077ZM197.779,154.12ZM197.947,154.12ZM197.737,154.288Zm-.248.163v.042h.042v.042h-.042v-.082h0Zm-1.474.5v.082h-.032v-.042h.042ZM195.973,155.073Zm-6.916,14.119h.042v.042h-.042Zm1.092,15.947v.042h0v.042h-.082v-.042h.042v-.042ZM163.8,203.9v.042h0Z" transform="translate(-23.024 -22.316)" fill="#4f9cef"/>
      <path id="Path_65506" data-name="Path 65506" d="M230.7,100.367h.042v.126h.042v.042h.042v.082h.042v.082h.042v.211h.042v.082h0v.042h.042v.082h.042v.082h.042v.042h.042v.042h.042v.042h.042v.042h.042v.042h.042v.042h.082v.042h-.045v-.042h-.042v-.042h0v.042h.042v.042h.042v.042h.126v.082h-.032v.082h.042v.126h.042v.082h.042v.082h.042v.082h.042v.082h.042v.082h.042v.082h.042v.082h.042v.126h.042v.082h.042v.082h.042v.042h0v.042h.042v.042h.042v-.042h.042v.082h.082v.042h.042v.042h.126v.042h.042v-.042h.248v.042h.042v.042h.163v.042h.042v.042h.042v.126h.042v.126h.042v.082h.042v.126h.042v.082h.042v.042h.042v.042h.042v.082h.042v.042h.042v.042h.295v.042h.042v.042h0v.042h.042v.042h-.042v.126h.042v.163h.042v.042h.042v.084h.082v.082h.082v.042h.042v.042h.082v.042h.042l.042-.042h.042v.042l-.042-.042v.082h.042v.042h.082v-.082l.042.042h0l-.042.042v.042h.082v.042h.042v.042h.084v.042h.082v.082h.042v.042h.042v.042h.042v-.042h.042v-.042h.042v-.047h0v.042h-.042v.042h-.037v.042h0v.042h.042v.042h.042v.042h.042v.042h.042v.042h.042v.042h.082v.042h.042v.042h.042v.082h.082v.042h.037v.042h.042v.042h.042v.042h.042v.1h.042v.042h.082v.042h.042v.042h.042v.042h.082V106h.042v.042h.042v.042h.042v.042h0v.082h-.047v.042h.042v-.082h.042v-.042h.082v.042h.082v.042H236v.042h.042v.042h.042v.042h.082v.042h.082v.042h.042v.042h.042v-.042h.211v.042H236.5v-.042h-.126v.082h.124v.042h-.042v.042h.042v.042h.042v.042h.082v.042h.042v.082h-.042v.082h-.082v-.042H236.5v-.042h-.042v.042h-.126v-.042h-.042v.042h-.042v.042H236.2v-.042h.042v-.082h.042v-.042h.042v-.082h.042v-.042h-.082v.042h-.042v.042h-.042v.042h-.04v.042h-.042v.042h-.042v.042h0v.082h.126v.04h-.042V107h-.082v.042h.163v.042h-.042v.042h-.04v.082l.042-.042h.042v-.082h.082v-.042h.168v.042h.042v.082h0v-.082h0v-.042H236.5V107h.163v-.042h.042v-.042h.042v-.082h-.042v-.082h.042v-.082h.126v.042h.042v-.042h.042v.042h.755v.042h.042v.042h.419l.042.042h.587v.042h.168v.042h.164v.035h.082V107h.126v.042h.082v.042h.082v.042h.168v.042h.126v.042h.042v-.042h.082v.042h.168v.042h.211v.042h0v.124h-.042v.042h-.042v.042h.042v.082h-.045v.082h-.042v.042h-.047v.042h-.042v.042h-.042v.042H240V108h.084v.042h.082v.042h.042v.042h0v.042h.168v-.082h.042v.042h0v.042h-.045v.042h0v.082H240.3v.042h.042v-.042h.084v.042h.248v-.042h.082v-.042h.082V108.2h.084v-.042H241v-.042h0v-.042h-.042l-.042-.042h-.208v-.042h-.042v-.037h-.042v-.082h-.042v-.082h0v-.042h-.042V107.7H240.5v-.042h-.042v-.042h-.042v-.042h-.042v-.042h-.042v-.04h-.042v-.04h.082v-.04h0v-.082h.04v-.082h.042v.042h.164v.042h.168v.042h0v.04h.042v.042h.042v.042h.042v.042h-.042v.042h0v-.042h-.03v.042h.082v.042h.042v-.082H241v.082h.042v-.042h.042v.042h.211v-.042h.042v-.042h-.042V107.5h.042v-.045h-.042v-.04h-.337v.042H241v.042h-.082v-.045h0v-.082h-.045v-.042H241v-.042h.126v-.04h.126v-.042h.292v.042h.042v.042h.042v.042h-.042v.168h.042v.126h.042v.163h.042v.126h.042V108h.042v.042h.082v.042h.042v.042h.042v.042h0v.042h.042v.126h.042v.082h.042v.042h.042v.082h.042v.163h.042v.163h0v.082h.042v.208h.042v.042h.042v.163h0v.042h.042v.082h-.042v.042H242.3v.042h-.082v.082h-.042v.042h-.042v.211h-.042v.126h-.042v.082h-.042v.376h.042v.082h.042v.042h.042v.211h-.042v.126h-.042v.126h-.042v.295h.042v.042h.042v.042h.042v.042h0v.248h-.042v.042h.042V112h.042v.126h-.042v.126h-.042v.126h-.042v.163l-.042.042h0v.126h-.042v.126h-.042v.419h0v.042h-.059v.126h.042v.042h-.042v.042h-.082v.042h-.042v.042H241.7v.042h-.082v.042h-.042v.042h-.042v.042h-.042v.042h-.042v.042h-.042v.042h-.037v.077h-.042v.042h-.042v.042h-.042v.042H241.2v.042h-.042v.082h-.037v.126h.082v.05h-.042v.042h-.04v.082h-.042v.082h-.042v.042h-.047v.042h-.042v.042h-.04v.082h-.035v.042h-.082v.042h-.042v.042h-.042v.042h-.042v.042h-.042v.042h-.042v.082h-.042v.042H240.5v.082h-.042v.042h0v.082h-.042v.082h-.042v.042h-.042v.082h-.042v.042h-.042v.042H240.2v.042h-.042v.082h-.042v.082h-.042v.126h-.042v.042h-.042v.042h-.042v.042h-.042v.042h-.042v.042h-.042v.042h-.042v.042h-.042v.042H239.7v.042h-.062v.042h-.042v.082h-.042v.082h-.042v.082h-.042v.042h-.047v.151h-.032v.126h-.04v.248h.042v.042h.042v.042h0v.082h-.045v.164h-.042v.163H239.3v.126h-.04v.082h-.042v.042h-.042v.082h-.04v.042h.042l-.042.042h0v.163H239.1v.082h-.042v.082h-.042v.042h-.042v.082h-.042v.126h-.037v.082h.042v.042h.042v.042h.042v.082h.042v.168h-.042v.082h-.042v.082h-.042v.082h-.042v.042h-.042v.042h-.082v.042h-.042v.042h-.042v.042H238.6v.042h-.042v.042h-.042v.042h-.042l-.042.042H238.4v.042h-.042v.042h-.042v.042h-.042v.042h-.042v.082h-.042v.042h-.042v.042H238.1v.042h-.042v.042h-.042v.082h-.052v.042h-.042v.082h-.04v.042h-.042v.082H237.8v.042h-.042v.042h-.04v.082h-.042v.042h-.042v.082h-.042v.126h-.04v.042h0v.082h.042v.042h.042v-.126h0v.168h.042v.126h-.042v.042h-.042v.042h-.042v.042h-.042v.042h-.042v.042h-.042v.042h-.042v.042H237.3v.042l-.042.042v.042h-.042v.042h-.059v.042h-.042v.05h-.042v.042h-.042v.042h-.042v.082h-.042v.042h-.037v.042h-.042v.042h-.042v.042h-.042v.042h-.042v.042H236.7v.042h-.037v.042h-.042v.042h-.042v.042l-.042.042v.042h-.042v.042h-.042v.042H236.4v.042h-.042v.082h-.04v.042h-.042v.042h-.04v.082h-.042v.042h-.027v.082h-.042v.082h-.042v.126h-.042v.082l-.042.042v.126h-.042v.248H236v.042h.042v.211H236v.126h-.042v.082h-.042v.082h-.042v.082h-.042v.042h-.042v.082h-.042v.042H235.7v.082h-.042v.042h-.042v.082h-.042v.082h-.042v.082h-.042v.126h-.042v.126h.042v.042h.042v.126h-.042v.082h-.042v.082h-.042v.042h-.042v.082h-.042v.082h-.042v.082h-.042v.042h-.064v.082h-.042v.042l-.042.042v.042h-.042v.042h-.042v.042h-.042v.042h-.037v.082h-.042v.082h-.05v.082H234.8v.126h-.04v.126h-.042v.082h-.032v.042h-.042v.126h-.04v.082h-.042v.042h-.042v.042h-.042v.082h-.04v.082h-.042v.042h-.042v.042h-.042v.042h-.042v.082h-.042v.042h-.037v.042h-.042v.082H234.1v.126h-.042v.164h.042v.042h-.042v.042h-.042v.042h-.042v.042h-.037v.042H233.9v.082h-.042v.042h-.042v.082h-.042v.042h-.042v.042l-.042.042v.042h-.042v.042H233.6v.042h-.042v.082h-.042v.042h-.042v.042h-.042v.082h-.042v.168h-.042v.168h.042v.042h.082v.042h.042v.042l.042.042h-.042v.126h-.042v.042h-.042v.082h-.05v.042H233.3v.042h-.042v.042h-.082v.042h-.04l-.042.042h-.082v.042h-.082v.042h-.042l-.042.042H232.8v.042h-.126v.042H232.6v.042h-.082v.042h-.082v.042h-.082v.042h-.082v.042h-.082v.042h-.082v.042h-.082v.042H231.9v.042h-.082v.042h-.082v.042h-.151v.042h-.126v.042h-.082v.042h-.126v.042h-.082v.042h-.126v.042h-.082v.042h-.082l-.042.042h-.082v.042h-.082v.042h-.082v.042h-.082v.042h-.042v.042h-.042v.042h-.082v.188H230.3v.042h-.042v.042h-.042v.042h-.042v.042h-.064v.042h-.082v.042h-.052v.042h-.04v.042h-.042v.042h-.082v.042h-.042v.042h-.042v.042h-.042v.042l-.042.042H229.6v.042h-.042v.042h-.042v.042h-.082v.042h-.042v.042h-.082v.042h-.042v.042h-.037l-.042.042h-.042v.042h-.042v.042h-.042v.042h-.042v.042h-.037l-.042.042H228.9v.042h-.042v.042h-.042v.042h-.082v.042h-.042v.042h-.042v.042h-.042v.042h-.082v.042h-.055v.042h-.042v.042h-.04v.042h-.042v.045h-.04l-.042.042h-.042v.042h-.042v.042h-.042v.042h-.082v.042h-.064v.042h-.042v.042h-.042v.042h-.042v.042h-.042v.042h-.042v.042h-.037v.042h-.082v.042h-.042v.042h-.042v.042h-.042v.042h-.04v.042h-.042v.042h-.042v.042h-.042v.042h-.042v.082h-.042v.042h-.037v.042h-.042v.042h-.042v.042h-.042v.042h-.042V134h-.042v.042h-.052v.042h-.042v.042h-.04v.082h-.042v.082h-.04v.042h-.042v.042h-.04v.042H226.7v.052h-.042v.082h-.042v.042h-.042v.042h-.042v.042h-.042v.082h-.042v.082h-.042v.042h-.042v.042h-.042V135h-.042v.042h-.042v.042h-.082v.042h-.042v.042h-.042v.042h-.042v.042h-.042v.042h-.042v.042H225.9v.042h-.082v.042h-.042v.042h-.042v.042h-.082v.042h-.042v.042h-.042v.042h-.055v.042h-.042v.042h-.055v.042h-.042v.042h-.04v.042H225.3v.042h-.027v.042h-.042v.082h-.04v.042h-.042v.082H225.1v.042h-.042v.042h-.04v.042h-.042v.042h-.042v.042h-.042v.082h-.042v.042h-.042v.042h-.037v.042h-.042v.042h-.042v.082h-.042v0H224.6v.042h-.042v.042h-.042v.082h-.042v.042h-.042v.042h-.042v.042h-.042v.042h-.042v.042h-.042v.042h-.042v.082h-.042v.042h-.042v.082H224.1v.082h-.042v.042h-.042v.082h-.042v.042h-.042v.082h-.05v.082h-.042v.042h-.057v.082h-.042v.082h-.04v.042h-.042v.082h-.042v.042h-.042v.082h-.04v.042h-.042v.082h-.042v.042h-.042v.082h-.042v.042h-.042v.042h-.037v.082h-.042v.082H223.2v.082h-.042v.295h-1.89l.082-1.93c.114-3.116.3-6.252.419-9.358l-.713-5.2,1.93,1.216,2.348,1.511,1.05-1.05.587-3.651.042-.082-.671-2.435,1.008-.8.966-.8-1.3-2.561-.082-1.3-.082-1.8-1.216-1.764.629-.5,1.845-1.216,1.177.379.082.545.8.248.126-.461V108l.168-.5-.042-1.385-1.008-1.132-.082-.126-1.05-1.679-.629-.461-.082-.882-.042-.966,1.761.5,1.385-1.048M231.805,102.5ZM232.3,102.965ZM240.131,107.186ZM241.012,107.481Zm-.743,0h.042v.126h-.042ZM240.6,107.944Zm-15.583,36.679h.248v.042h.042l.042.042h.042v.042h.042v.334h-.042v.163h-.042v.126h-.042v.211h-.042v.208h-.042V146h-.042v.211h.042v.168h.042v.126h.042v.082h.042v.126h.042v.042h.042v.042h.042v.042h.082v.042h.082v.042h.042v.042h.042v.042h.163v.082h0v.211h-.042v.082h.042v.082h.042v.042h-.042v.208h.042v.082h.042v.042h.042v.126h.042v.082h.082v.042h.163v.042h.042v.042h0v.082H226.3v.042h-.045v.042h0v.042h-.042v.042h-.042v.042h-.042v.042h0v.042h-.042v.082h-.126v.042h-.082v.042H225.8v.042h-.037v.042h-.126v.042H225.6V148.8h-.042v.042h-.082v.042H225.4v.042h-.082v.126h-.047v.042h-.082v.042h-.082v.042h-.126v.042h-.042v.042h-.082v.042h-.082v.042h-.082v.042h-.042v.042h-.082v.042h-.042v.042h-.082v.042H224.4v.042h-.082v.042h-.082v.082h-.082v.042h-.042v.082h.042v.042h-.042v.042h-.084v.042h-.072v.042h-.042v.042h-.04v.042h-.042v.042h-.052v.082h-.042v.126H223.7v.082h-.042v.126h.042v.163h-.042v.126h-.042v.042h-.042v.042h-.037v.126h-.042v.082h-.042v.042h-.042v.042h-.042v.082h-.042v.042h-.037v.042h.042v.042h.042v.042h-.042v.126h.042v.082h-.042v.082h-.042v.082h-.042v.042h.042v.042h-.042v.126h.042v.042l-.042.042H223.2v.082h-.042v.042h-.042v.082h-.042v.042h-.037v.082H223v.042h-.042v.042h-.042v.211h.082v.042h-.082v.042h.042v.082h.084v.082h0v.042h0v.042h-.084v.042h-.042v.042h-.042l-.042.042h-.082v.042H222.7v.082h-.042v.042h-.119v.042h-.052v.042h-.042v.042h-.082v.042h-.04v.042h-.082v.042H222.2v.082h-.042v.126h-.082v.082h-.042v.087H222v.082h-.042v.082h-.042v.168h-.082v.042h-.042v.042h-.082v.042h-.082v.082H221.5v.042h-.042v.042h-.082v.042h-.082v.042h-.126v.042h-.082v.042H221v.042h-.082v.055h-.067v.082h-.045v.042h.042v.082h-.082v.082h-.042v.042h-.04v.042h-.248v.042h-.082v.042h-.044v.042h-.042v-.148h-.042v-.082h0v-.166h-.042v-.042h-.042v-.126h.042v-.079h.042v-.116h-.042v-.082h-.042v-.05h.082v-.126h-.042v-.042h.042v-.042h-.042v-.037h-.042v-.082H220.1v-.042h0v-.124h-.042v-.211h.042v-.164h-.042v-.042h-.042v-.042h.042v-.037h0v-.164h-.042v-.211h.042V153.1h.042v-.163h-.042v-.082h.082v-.126h.042v-.463h-.042v-.168h.042v-.126h-.042v-.082h.042v-.163h.082v-.042h.042V151.6l.042-.042v-.042h.042v-.057h.082v-.082h.042v-.126h.082v-.082h.042v-.116h.134v-.042h.042v-.042h.082v-.042h.042v-.042h.042v-.042h.082V150.8h.042v-.042h.042V150.6H221.1v-.082h.042v-.082h.042v-.042h.082v-.042h.042v-.042h.082v-.042h.042v-.082h.042v-.124h.082v-.042h.042v-.042h.042v-.057h.042v.042h.042V150h.042v.042h.042v.082h.042v.042h.084v-.042h.248v.042h.216v-.042h.042v-.067h.042v-.082h.124v-.042h.082v-.082h.042v-.042h.042v-.042h.042v-.121h.042V149.6h-.042v-.04h.042V149.4h.042v-.042h0v-.04h.082v-.082h.042v-.082h-.042v-.126h-.042v-.248h.042v-.126h.042V148.4h0v-.248h.042v-.079h.042v-.082h.042v-.082h.042v-.084h.042v-.042h.042v-.042h.042v-.082h.04v-.082h.042v-.042h.042V147.5h.042v-.042h.042v-.082h.042v-.082h.042v-.164h.042v-.082h.042l.042-.042h.042v-.126h.042v-.04h.042v-.082h.042v-.042h.042v-.042h.042v-.042h.05v-.082h.042v-.077h.042v-.042h.082v-.04h.082v-.047h.042v-.04h.042v-.042h.124v-.082h0v-.295h-.042V145.8h.042v-.126h.042V145.6h-.082v-.042h.042v.042h.042v.042h.042v-.082h.042V145.4h-.082v-.045h0v.042h.082v-.042h0v-.042h0v-.042h.042v-.042h0V145.1h.042v-.211h-.042v-.082h-.042v-.057h.042v-.042h.126v-.04h.042v-.042h.082v-.042h.042v.042H225ZM224.013,144.787Zm-.545,1.427v.082h-.042v.082h-.042v.042l-.042.042v.042h-.055v.042h-.042v.045h0v.042h-.082v.042h-.168v-.084h.042v-.042h.042v-.042l.042-.042v-.042h.042v-.037h.042v-.042h.042v-.04h.042v-.042h.042v-.04h.042v-.042h.082Zm2.393.671v.042h0Zm-3.438,2.266v.163h.042v.042h.04v.042h-.04v.082h-.042v.042h-.082v.042H222.3v.042h-.047v.042h-.042v-.295h.042v-.04h.042v-.163l.042-.042v-.082h.042v-.042h.042v-.042h0v.082h-.042v.042h.042v.042h-.042v.042h.042ZM221.927,149.7ZM221.885,149.739ZM221.674,149.739Zm.082.082v.042h0ZM221.714,149.863ZM221.883,149.989ZM220.163,150.786Zm-.376.8h.042v.042h-.042Zm.292,1.174v.042h-.042ZM220.121,154.856ZM220.248,155.352Z" transform="translate(-38.248 -16.084)" fill="#146264"/>
      <path id="Path_65507" data-name="Path 65507" d="M212.189,92.358l.629.5.421-.376,1.008-.211.211.248.632.84.042.042.248.126.5-.084-.042-.042v-.084l-.042-.084h.084l.337-.084h.126l.126.463,1.387-.042.629-.042.211,1.6.042.248,1.679,1.05.211.248.671.713.5.545.295.337.211.421.292.461.882.211.042.966.084.882.629.461,1.048,1.679.084.126,1.008,1.132.042,1.385-.168.5v.042l-.126.461-.8-.248-.084-.545-1.174-.376-1.848,1.216-.629.5,1.216,1.761.084,1.8.084,1.3,1.3,2.561-.966.8-1.008.8.671,2.435-.042.084-.587,3.651-1.048,1.048-2.351-1.511L217,121.036l.713,5.2v.248l-.042.168v.743l-.248,5.331-.126,2.393-7.721-7.386-1.008.168-.421.084.921,3.609-3.775,1.3-.084.042-.379-2.351-.461-3.106-.126-.882v-.042l.8-1.092-.84-2.432-.042-.084h-1.427v-.379l.295-.376.295-.421-.587-1.05-1.006-1.982-1.008-2.351-.084-.084-1.216-1.258-.126-.126-.5.211-.5.168-.84.211-.211-.629.8-1.637.924-1.05,3.062-3.567v-.587l-.921-1.174.882-2.182V103.8l1.092-1.216.295-.882.248-.713-.545-.461-.126-.126h0l.629-.337.248-.461-.337-.376.168-.211-.334-.419-.461-.882-.084-.8,1.256.354.126.168.248-.168v-.337l.882-.545h1.09l.248-.168.587-.421.295-.126.334-.084.168.084,1.174-.211.379-.587.216-.082.5-.168h.042l.084-.042h.042l.5-.126v-.042L211,94.25l-.292-.126-.042-.084L210.621,94l-.5-.168-.084-.671.084-.5.042-.248.671-.042.421-.126V92.2l.629-.421.295.587" transform="translate(-34.175 -14.537)" fill="#faca88"/>
      <path id="Path_65508" data-name="Path 65508" d="M202.756,85.818l.042.042.211-.042h.248l.168.042h.126l.042.042.211.295h.042l-.168.166.126.5.545.5.587.5-.168.671.629.545-.126.168.211.755.126.042.248.042.248.295-.334.084.211.379.295.248-.671.042-.042.248-.084.5.084.671.5.168.042.042.042.084.295.126-.042.168v.082l-.5.126h-.042l-.084.042h-.042l-.5.166-.211.084-.376.587-1.177.211-.168-.084-.334.084-.295.124-.587.421-.248.168h-1.092l-.882.545v.337l-.248.168-.126-.168-1.258-.295.084.8.461.882.337.419-.168.211.337.377-.248.461-.629.337h0l.126.126.545.461-.248.713-.292.882-1.092,1.216v.882l-.882,2.182.921,1.177v.587L194.419,111l-.924,1.05-.8,1.637.211.629.84-.211.5-.168.5-.211.126.126,1.216,1.258.084.084,1.008,2.351,1.008,1.982.587,1.05-.295.419-.295.376v.379h1.427l.042.084.84,2.432-.8,1.092v.042l.126.882.461,3.106.376,2.351-.84.924-.671,5.246-9.819-1.93-6.5-1.258-10.785-3.735.376-1.216.966-3.4.211-.587v-.337l1.427-14.27v-.248l.042-.126,1.174-1.343.042-.168.042-.882.211-2.814v-.054l-.042-.042-.545-.713.084-.461.168-.84.126-.5.882-.84.337-.295.8-.713,1.848-.168h.337v-.713l-2.1-1.93-.295-.295.84-.587.337-.924.084-1.174.042-.084v-.337l-.5-.295.376-.671v-.042l.084-.126.295-.587-.084-.084-.379-.5v-.419l.587.295v-.084l-.042-.545,2.18-.587v-.882l.924-.629h.379l.713.545h1.427l.042.5,1.216.837,1.048.421.882.168.208.208.379.084.629-.292.084-.168.042-.168.671.042.295.084.671.126.248.292.168-.124.211.082.882.084.168-.042.713-.166-.042.587.295.292h.421l.629-.545.545-1.343.084-.461.713-.421.168-.671-.295-.211.084-.248.337-.337.211-.042.461-.5v-.211l.168-.084.084-.248-.084-.379.126-.743.924-.295,1.132.379.334-.84-.042-.743h.042l.292-.042v-.211l1.469.042h.334l.042.755.248.042.126.042" transform="translate(-29.609 -13.286)" fill="#afc618"/>
      <path id="Path_65509" data-name="Path 65509" d="M203.193,76.6v.042h-.042V76.6h.042m-.248,0v.042h0v.042h.042v.042h-.211v-.042h-.04v-.042h.082v.042h.082v-.042h0V76.6h.042ZM203.072,76.642Zm-.042,0h-.045ZM202.861,76.642Zm-.248.042h.042ZM202.906,76.684ZM202.529,76.684ZM202.99,76.684ZM202.571,76.684ZM202.653,76.726Zm0,0v.042h-.126v-.042h.089Zm-.379,0h-.042v.042h.084v.042h-.211v-.042h.126v-.042Zm.126,0v.042h-.042v-.042ZM202.482,76.768ZM204.162,77.105Zm.082-.042h0l-.042.042v-.042Zm-3.82.042h.082v.042h-.084v-.042h0ZM200.719,77.147ZM200.677,77.147Zm-8.392.337v.042h.042v.042h.082v.042h.082v.042h.126v.042h.082v.042h.082v.042h.126v.059h.042V77.8h0v.042h0v.042h.042v-.042h.042v.042h.082v.042h.082v.042h.082v.047h.082v.042h.126v.032h.126v.042h.163v.04h.211v.042h.126v.04h.126v.042h.082v.042h.168v.042h.163v.042h.211v.042h.248V78.5h.295v.042h.419v.037h.5v-.042h.211V78.5h.126v-.042h.082v-.042h.082v-.042h.082v-.037h.082v-.042h.082v.042l-.042.042h.042V78.5h-.042v.042h.082v.082h.042v.082h.042v.042h.042v.079h.042v.042h.042v.042h.042v.042h.042V79h.042v.042h.082v.037h.042v.042h.082v.042h.042V79.2h.082v.042h.082v.042h.042v.037h.082v.042h.042v.042h.082v.042h.082v.042h.082v.042h.082v.037h.082v.042h.126v.042h.163V79.7h.295v.042h1.3V79.7h.295v-.042h.5v-.042h.966v.042c.04.572-.111.5-.126,1.092l-.042.547.421.042.211.082-.042.042-.042.211v.082l.168.248-.042.126-.042.126-.126.5-.042.126-.042.248.042.295v.211l-.295.042h-.042l.042.743-.334.84-1.132-.379-.924.295-.126.743.082.379-.082.248-.163.082v.208l-.461.5-.211.042-.337.337-.082.248.295.211-.168.671-.713.421-.082.461-.545,1.343-.629.545h-.362l-.295-.295.042-.587-.713.163-.168.042-.882-.082-.211-.082-.163.126-.248-.292-.671-.126-.295-.082-.671-.042-.042.163-.082.163-.629.292-.376-.082-.211-.211-.882-.163-1.048-.421-1.216-.84-.042-.5h-1.427l-.713-.545v-.629l-.334-.042-1.09-.211.334-.8-.587-.8-.924-.8.248-.337.84-.337.461-.461L183.09,83l.924-.5,2.393-1.3,1.511-.743,1.764-.211h.082l.295.248.126.042.671-.882.84-.84.163-.248.082-.163.042-.042h.042v-.035l.042-.042.042.042v-.082l.042.042.042-.042v-.092l-.042-.042h-.042v-.032h-.042v-.042l.126-.211V77.5h.042v-.082h.042V77.5ZM196.775,78.029Zm.211.042h.042v.042h-.042ZM196.944,78.113Zm.163,0v.042h.168V78.2h-.082v-.042h-.126v-.042ZM197.065,78.113Zm-.168.042h.042V78.2H196.9v-.042Z" transform="translate(-31.515 -11.801)" fill="#b97316"/>
      <path id="Path_65510" data-name="Path 65510" d="M167.56,49.292v.168h.042v.126h.042V49.8h.042v.124h.042v.126h.042v.168h.042v.126h.042v.082h.042V50.5h.042v.126h.042v.126h.042v.082h.042V51h.042v.126h.042v.126h.042v.082h.042v.057h.042v.126h.042V51.6h.042v.126h.042v.126h.042v.082h.042v.082h.042V52.1h.042v.042h.042v.042h.042v.042l.042.042V52.3l.042.042v.082h.042V52.5h.042v.082h.042v.042h.042v.082h.042v.084h.042v.146h.042v.126h.042v.168h.042v.082h.042v.126h.042v.163h.042v.211h.042V53.9h.042v.211h.042v.126h.042v.082h.042v.126h.042v.084h.042v.136h.042v.082h.042v.082h.042v.082h.042v.042h.042v.082h.042v.126h.042v.082h.042v.082h.042v.082h.042v.082H170v.082h.042v.042h.042v.082h.042v.082h.042v.082h.042v.082h.042v.077h.042V56.1h.042v.082h.042v.084l.042.042v.082h.042v.082h.042v.082h.042v.082h.042v.042l.042.042v.042h.042v.082h.042v.082h.042v.042h.042v.082h.042v.042l.042.042v.042h.042v.082h.042V57.3h.042v.042h.042v.082h.042v.042h.042v.082h.042v.042h.042v.082h.042v.082h.042v.042h.042v.042h.042v.082h.042v.1h.042V58.1h.042v.042h.042v.04h.042v.042h.042v.082h.042v.042h.042v.042h.042v.042l.082-.042v-.042h-.042v-.042h0v.042h.042v.042l.082-.082h.042l.082-.042h0l-.082.042-.082.082h.042v.042h.042v.059h.042v.042l.042.042v.042h.042v.042h0l-.042.042-.042-.042-.042-.042v-.042h-.042v-.04H171.9v-.082h-.042v-.042l-.082.082.042.042v.042h.042v.042h.042v.042l.042.042.042.042v.042h.042v.042l.042.042v.042l.042.042v.03h.042v-.042h.082V58.9h.042v-.082h-.042v-.042l.042.042V58.74l-.042-.042v-.042H172.2v-.042l.042.042V58.7l.042.042v.211H172.2v.163h.042v.121h.042v.042l.082-.042.042-.042.042-.042v-.042l.042.042-.042-.042v.042H172.4v.042h-.042l-.042.042v.042h.042v-.042h0v.042h-.04v.082h.042v-.042h.042v-.042h.042v-.04h0v.042H172.4v.042h-.042V59.4h.042v.042h.042v.04h.042v.042h.042v.042h.042v.042h.042v.042h.042v.042h.042v.05h.042v.042h.042v.04h.042v.042h.042v.04h.042v.042h.042v.04h.042v.042h.042v.042h.042v.042h.042v.042h.042V60.2h.042v.042h.042v.042h.042v.042h.042v.042h.042v.042h.042v.042h.082v.042h.042v.042h.082v.042h.042v.042h.134v.042h.042V60.7h.042v.082h.042v.082h.042v.082H174v.042h.042v.082h.042v.042l.042.042V61.2h.042v.042h0v.042h.042l.042.042h0v.042h.042v.082h.042v.042h.042v.082h.042v.057l.042.042v.04h.042v.042l.042.042v.042h.042v.042h.042v.079h.042V62h.042v.042h.042v.082h.042v.042l.042.042v.042h.042v.042l.042.042v.042l.042.042v.035l.042.042h.042v.082h.042v.042h.042V62.7h.042v.042h.042v.082h.042v.042h.042v.082h.042v.082h.042v.042h.04v.082h.042V63.2h.042v.082h.042v.062h.042v.082h.042v.082h.042v.042h.042v.082h.042v.042l.042.042v.042h.042V63.8h.042v.082h.042v.042h.042v.042h.042v.082h.042v.042h.042v.042h.042v.082h.042v.042h.042v.082h.042v.042h.042v.082h.042V64.5h.042v.042h.042v.082h.042v.042h.042v.042h.042v.042h.042v.042h.042v.042h.042v.1h.042v.082h.042V65.1h.042v.064h.042v.082h.042v.082h.042v.042h.042v.062h.042v.082h.04v.042h.042v.082h.042v.042h.042v.082h.042V65.8h.042v.042h.04v.082h.042v.042h.042v.042h.042v.082h.042v.042h.042v.04h.042v.042h.042v.042h.042v.082h.042v.042h.042v.04h.042v.042h.042V66.5h.042v.042h.042v.042h.042v.042h.042v.064h.042v.042h.042v.04h.042v.042h.042v.04h.042v.057h.042v.04h.042V67h.042v.04h.042v.042h.042v.042h.042v.042h.042V67.2h.042v.042h.082v.042h.042v.042h.042v.042h.042v.037h.042v.042h.042v.042h.082v.042h.042v.042H179v.042h.042v.037h.042V67.7h.082v.042h.042v.042h.042v.042h.082v.042h.042V67.9h.042v.042h.082v.042h.126v.042h.042v.042h.042v.042h.042v.037h.042v.042h.042v.042h.042v.042h.042v.042h.042v.042H180V68.4h.082v.042h.042v.047h.042v.042h.042v.04h.082v.042h.042v.04h.082V68.7h.042v.04h.042v.042h.042v.042h.042v.042h.042v.042h.042v.042h.042v.042l.042.042v.042h.042v.042h.042v.042h.042V69.2h.082v.042H181v.042h.042v.042h.042v.062h.042v.042h.042v.042h.042v.042h.082v.042l.042-.042h0l-.042.042h.042V69.6h.042v.037h.042v.042h.082v.042h.042v.042h.018v.042h.082v.042h.042v.037h.082v.042h.082v.042h.042v.042h.082v.042h.082V70.1h.082v.035h.042l.042.042h.082v.047h.082v.042h.082v.04h.082v.042h.082v.035h.082v.042h.082v.04h.082v.042H183v.04h.082v.042h.082v.042h.126v.042h.126v.042h.082v.042h.126V70.8h.126v.042h.082v.037h.126v.042h.126v.042h.082V71h.126v.042h.126v.042h.082v.042h.168v.042h.168v.042h.126v.042h.163l.042.042h.082v.042h.126v.042h.082v.042h.126v.042h.126v.042h.126v.042h.126v.042h.126v.042h.168v.042h.211v.042h.126v.042h.126V71.8h.126v.042h.208v-.04h0v.082h.124v.042h.082v.042h.126v.047h.163v.042h.168v.055h.126v.042h.126v.04h.082v.042h.082v.04h.126v.042h.082v.042h.126v.042h.126v-.042h.042v-.05h0v.05l-.042.042v.042h.042l.042-.042-.042.042h.042v-.042l.042.042h-.042v.042h.042v.337l-.126.211v.042h.042v.027h.042l.042.042v.082l-.042.042-.042-.042v.082l-.042-.042-.042.042v.082h-.042l-.042.042-.082.168-.082.163-.082.082-.84.84-.671.882-.126-.042-.295-.248h-.082l-1.764.211-1.511.743-2.39,1.3-.924.5-.587-.337-.334.461-.5.126-.211.042-.419-.248-.168-.248.042-.671-.463-.168-.743-.248.082-.163.211-.461-.042-.082-.082-.126-.211.082-.248-.168v.042l-.248.545-.126.042-.211.082.082-.5-.042-.545v-.159l-.84,1.048-2.1-1.982-1.132.211-.5-1.177-.376-.8v-.027l-.463-.295-.287-.285-.042-.042-.082-.461-.082-.419v-.042l-.248-.168-.211-.163-.376-.126h-.671l-.295-.248.042-.042.042-.042.292-.292-.208-.163-.082-.082h-.042l-.421-.337.126-.126.5-.461-.163-.295h-.421l-.587-2.561-.671-.421v-.211l-.463-.211.295-.211.163-.248-.421-.211v-.042l.042-.211.211-.163-.168-.755v-.642l.837-.545.295-.743-.84-.713h-.713l-.629-.337-.461-1.845h-.042l-.082-.379-.042-.211-.082-.211-.042-.211-.042-.082v-.126l-.082-.168v-.126l.126-.292.042-.126.461.082.082-.421v-.067a2.651,2.651,0,0,1-.164-1.177V54.9c.176-.874.424-.716-.211-1.637l-.042-.082.211-.126.042-.211a3.52,3.52,0,0,1,.042-.8V51.75l.042-.042h.126l.337-.082h.168l.082-.042.248-.042.126-.082.082-.082h.042l.018-.069.082-.042v-.22h.461a3.344,3.344,0,0,0,.379-.248v-.059h.042c.173-.173.248-.5.379-.587l.042-.082-.042-.082h-.042l-.042-.042-.042-.042-.042-.082V49.78l-.042-.042-.042-.082-.042-.042v-.04l-.042-.042V49.49l-.042-.042v-.042l-.042-.082-.042-.042h.421l.082-.042V49.2h.211l.082-.042h.082l.082-.042v.163h.042" transform="translate(-28.107 -6.811)" fill="#ca3182"/>
      <path id="Path_65511" data-name="Path 65511" d="M158.108,73.107l.461.587.8-.042.126-.082.126-.082.421-.337.713.463,1.132.163h.082l1.216-.042h.042l.421.337h.042l.082.082.208.168-.292.295-.042.042-.042.042.295.248h.671l.376.126.211.163.248.168v.042l.082.419.082.461.042.042.376.295.463.292V77l.376.8.5,1.174,1.132-.211,2.1,1.982.837-1.048v.163l.042.545-.082.5.211-.082.126-.042.248-.545v-.037l.248.163.211-.082.082.126.042.082-.211.461-.082.168.743.248.461.163-.042.671.168.248.419.248.211-.042.5-.126.334-.461.59.337,1.006.8-.461.463-.84.334-.248.337.924.8.587.8-.334.8,1.092.208.337.042V87.6h-.376l-.924.629v.894l-2.182.587.042.545v.082l-.587-.295v.421l.376.5.082.082-.292.587-.082.126V91.8l-.379.671.5.295V93.1l-.042.082-.082,1.174-.337.924-.837.587.295.292,2.1,1.93V98.8H174.6l-1.848.168-.8.713-.337.295-.882.84-.126.5-.168.84-.082.461.545.713.042.042v.042l-.211,2.811-.042.882-.042.163-1.177,1.343-.042.126V109L168,123.268v.334l-1.048.126-2.938.421-9.479,1.387-9.021,1.258.126-.377.126-.337.126-.379c.646-2.019,1.278-4.085,1.982-6.086l.163-.5.126-.421.126-.461c.275-.7.443-1.439.713-2.14l.168-.461c.845-3.1,1.065-1.239-.5-4.2l-.211-.337c-2.261-3.824-4.491-7.661-6.755-11.5l-.211-.337-.082-.163.082.042V99.1c.04-.646.4-1.662.211-2.182l.082-.163-.082-.163-.082-.168v-.163l.082-.163.042-.163.042-.163v-.211l-.042-.168-.126-.126a5.012,5.012,0,0,1,.042-1.385l.042-.211-.082-.126.082-.163v-.163l-.042-.168v-.163l-.042-.163.042-.126.126-.126.042-.082.082-.082v-.168l-.082-.163v-.163l.042-.126.042-.126c-.1-.629.4-1.045.713-1.556l.126-.126.126-.163.082-.126c.654-1.238,1.355-2.477,1.982-3.735l.082-.126V85.64h.042l.042-.082.082-.168v.042h.042l.082.082h.042v.042h.042l.042.042.713.419,1.427.8,2.938-1.8.163-1.092.461.082.295.042v.421h.168l1.556-1.132-.042.5-.042.376.716-.5.587-.248.461-.163.248-.126.337-.042h.082l.168.082.163.082-.042.295.419.042.463-.211.211-.042h.042l.295-.082.211-.082-.5-.966.545-.545.126-.587.126-.248-.419-1.008-.629-1.385v-.042l-.337-.713.337-.042.8-.082v-.545l-.042-.082-.379-1.048h.379l.082-.126V75.71l-.248-.966.168-.248h.042l.163-.042.168-.379-.126-.5.042-.211.126-.211.126-.082h.042l.042.042" transform="translate(-24.07 -11.149)" fill="#e2de59"/>
      <path id="Path_65512" data-name="Path 65512" d="M169.812,11.553v.082h-.04v-.082h.042m.248.163h.082v.042H170.1v-.042ZM170.273,12.1Zm-.755,1.511v.082h-.087v-.037h.042v-.042h.042Zm-2.14.337v.082h-.042v.168h-.045v.082h-.042v.082h.084v.037h.042v-.042h.042v-.168h.126v.126H167.5v.084h-.052v.042h0v.082h.126v-.042h.042V14.35h.042v-.042h.042v.087h-.042v.042h.042v.042h-.042v.146h.042v-.042h.082V14.54h.042v-.082h.042v-.082h.042V14.3h.084v.082h.042v.082h0V14.5h-.124v.082l.042.042v.042h-.042v.082h.042v.04h-.042v.082h-.042v.042h.042v.042h.082v-.042h.042V14.87h.042v-.042h.042v-.04h.042v-.042h.042v-.04h.042v-.042h.042v.082h.042v.042h.042v-.042h.042v-.04h.042v.042h-.042v.04h-.042v.082h.042v.082h0v.082h0v.042h.042v.082h.082v-.035h.042v.042h.084v-.042h.042v-.084h.042V15h.082v.168h-.042v.126h.042v-.042h.082v.042H169v-.082h.126v.042h.211v.082h.042v-.042h.055v-.042h.082v-.042h.042v-.042h0V15.12h-.042v-.042h0v-.042h-.082v-.042h-.042v-.082h.042v-.047h-.082v-.042h-.126v-.082h-.082V14.7H169.1v-.042h.042V14.7h.082v.042h.082v.04h.206v-.042h-.042V14.7h.082v-.126h0v-.042h0v.042h.124v.045h-.042v.163h-.042v.042h0l.042.042h0v.126h.042v.042h.042v.042h-.037V15.2h-.042v.082h.126v.042h.042v-.042h.042v-.042h.042v.042h.042v.126h-.042v.042h-.042V15.5h-.084v.042h-.042V15.5h-.042v-.042H169.6V15.5h-.042v.042h-.042v-.124h.042v-.082h-.211v.052h-.32v-.042h-.042v.042H168.9v.042h-.04v.042h-.082v.082h-.042v.042h-.049v.082h-.042v-.042h.042v-.042h-.042v-.042h.042v-.042H168.6v.042h-.082v-.042H168.4v.082h-.042v.045h-.042v-.042h-.042v-.042h-.077v.168h.042v.042h.042v.082h.042v.04h0v.082h-.163V15.88h-.042v-.05h-.082v.05h-.087v.082H167.9V15.92h-.082v-.04h-.042v.042h-.042v.042h-.04v.163h.042v.042h.042v-.042h.042v.042h.042v.082h.042v.042h.042v.047h0v.035h0v.04h-.163V16.5h-.042v-.042h-.082v.082h.082v.042h.042v.045h.082v.042h.042v-.042h.082v.042h-.126v.042h-.042v.042h.042v.042h.042v.042h.042v.037h.042v-.042h.082v-.04h.082v-.042h0v.042h.042v.248h0v.042h.126v-.042h.042v.042h.042v.126h.042v-.042h.042v.042h.082v.042h.042v-.03h.084v-.042h.082v-.042h-.042v-.082h.124V17.01h-.042v-.082h-.047v-.082h.042V16.8h.042v-.042h.042v.168h.042v.042h.163v.042h.042v-.042h.042v-.042h.042v.163h0v.032h.042v-.042h.082v-.042h.042v.042h-.126v.042h-.089v.042h-.042v.082H169.1v.042h.042V17.5h0v.082h.042v.082h.082v.082h0v.042h.042v.082h-.042v.042h.042v.059h-.042v-.03h-.126v.082h-.082v-.126h.042V17.85h-.042v-.042h-.121v-.045h.042v-.042h.042v-.042h.042v-.04h0v-.126h-.045v-.082h-.042v-.042h-.211v.042h-.042v.082h-.035v.042h0V17.6h-.042v.042h-.126v.042h-.042v.042h.042v.042h.042v.042h.042v.042h-.042v.082h-.042v-.042h-.042v-.042h-.126v.042h0v.042h.082v.047h0v.042h-.042v.04h.082v.082h-.082v.042h0v.082h.042v-.042h.042v.134h0v.082h-.042v.042h-.042v.042h.124v.042h.042v.082h.082v-.092h.042v-.082h.042v-.042h.042V18.39h.042v.126h.042v-.042h.042v.042h.042v-.042h.082v.042h-.042v.042h0v.047h.042v.042h.042v.042h0v.042h0v.163h.124v-.042h.042v-.042h.042v.126h0v.082h.042v.042h.042v.04h-.126v-.042h-.04V19.1h-.042v.042h-.082v-.082h0v-.042h0v-.042h-.124v.042h-.208v-.042h-.04v-.042h-.042v.082H168.6v.042h-.042v-.082h-.082v.042h0v.042h-.04v-.084H168.4v.042h-.042V19.1h-.126v-.042h-.037v-.082h-.042v-.042h-.042v-.042h0v-.126h-.042v-.082h-.082v.042h-.04v-.037h.042v-.042h0v-.042h.082v-.042h-.042v-.042h0v-.042h-.082V18.4h.042v-.082h.124v-.042h0v-.042h-.042v-.042h0V18.11h.042v-.082h-.042v-.05h-.126v.042H167.9v.04h-.042v.05h-.042v.082h-.082v-.042h-.082v.082h-.082v.082h.042v.045h-.042V18.4h0v.082h.042v-.042h.042v.126h-.042v-.042h-.042v.042h-.042v.082h-.079v.082h-.042V18.7h-.04v.042h-.042V18.7h.042v-.1h.042v-.042h0v-.168h.042v-.037h-.042v-.082h-.042v-.042h-.042v-.042h.082v-.042h.042v-.04h-.042v-.05h.082v-.042h.042v.042h.211v-.042H167.7v-.04h.042v-.042H167.7V17.9h-.042v-.084h-.042V17.77h-.124v-.042h-.042v-.04h-.126v.042h-.037v.042h-.042v.089H167.2v-.05h-.042V17.77h-.042v.042h-.042v.126h-.082v.037h-.04v.082h-.042v.082h-.042v.042h.124v.042h.042v.042h-.126v.042h.045v.05h-.042V18.4h-.124v.042h-.082v.042h-.082v-.042H166.5v.042h-.04v.042h-.042v.042h-.042v.082h.042v.042h.042v.042h.042v-.042h.042v.126H166.5V18.9h.042v.042H166.5v.042h0v.042h.082v-.05h.042v-.032h.042V18.9h.042v-.05h.042v-.082h.042v.042l-.042.042V18.9h-.045v.168h-.042V19.1h-.042v.042h-.082v.082h.082v.042h.042v.042h-.082v.042h-.042v.126h0v.082H166.5V19.6h.082v.042h-.042v.04H166.5v.126h.126v-.045h.082v-.042h.082V19.6h-.042v-.042h.042v-.04h.042v-.042h.042v-.032h.042v-.042h-.042v-.042h.042v-.045h.042v-.042H167v-.042h.163V19.1h.042v-.042h.042V19.1h.042v.082h.042v.126h-.04v.04h-.042v.042h0v.082h0v.05h-.082V19.6h.042v.082h-.042v.082h-.042v.042h0v.082h.042v-.042h.082v.042h.042v.042h0v.042h.042v.042h.042v-.042h.082v-.037h.042V19.9h-.047v-.082h.042v-.047h-.042v-.042h.042v-.04h.042v-.042h.042V19.6h.042v-.042h.042V19.6h0v.163h.042v.042h-.042v.042h.084v-.082h.042v-.042h.042v-.042h.082v.082h.042v.042h-.042v.082h.042v.042h-.042v.042h-.042v.042h.042V20.1h.042v.042h.042V20.1h.126v-.042h.082v-.042h.042V19.97h.082v-.082h.042v.126h.042v-.042h.082V19.93h.042v-.082h.042v.042h-.042v.042h.126v.042h.082v.042h.042v.042h.126v-.042h.042v-.042h.082v.082h.042V20.1h-.163v.042h-.042v.042h-.042v.042h-.082v.042h-.124v.042h-.168v.126h-.042v.082h-.042v.042h0V20.6h.042v.042h.042v.042h-.082v.082h0v.067h.042v.082h-.042v-.042h-.082v.042h-.042v-.042l-.042-.042h-.082v.042h.042v.042H168v.042h-.042v-.03h-.084v-.042h.042v-.052h0v-.042h-.042V20.75h-.042v.084h-.042v.042h-.126v.042h-.042v.042h-.042v-.04H167.5V21h-.047v.042h.042v.05h.082v.042h-.042v.04h-.042v.042h.042V21.3H167.4v.03h0v.042h.124v.042h.042V21.33h.042v-.082h.084v-.042h.124v.04h0v.084h.248v-.042h.042v-.04h.082v.126h-.082V21.5h.042v.042h-.042v.082h0l-.042.042h.042v.042h.042l-.042.042h.082v.042h-.042v.082h.042v.042h.042V22h.042l-.042.042h-.042v-.082h-.042v-.042h-.042v.042h-.042v-.042h-.042v.156h-.042v.042H167.9v-.042h-.042v.042h-.042v.042h.042V22.2h.042v.042h-.163v.079H167.7V22.4h.126v.042h.042v.042h.166v.042h.082v-.042h.042v.042h.042v.042h-.042v.082h.042v.042h-.042v.042h-.042v.082h.042v.144h.042V23h.082v.059h.126v-.042h.082V22.94h.168v-.05h.04v.042h-.042v.04h-.042v.042h-.082v.05H168.4v.042h.042v.168h.042v.037H168.4v-.05h-.082V23.18h-.211v.042h-.042v.089h-.042v-.05h-.042v-.126H167.9v.042h-.042v-.042h-.082v-.042h-.042v-.03h-.124v.042h-.042v.042h.042v.082h-.042v.042h0v.04h-.037v.042h.082V23.4h-.042v.082h0v.208h0v.082h.126l.042-.042v.042h.042v.04h.082v.082h-.042v.082h-.042v.084h-.042V24.1H167.7v.082h.042v.082H167.7v.126h0v.042h-.042v.042h-.042v.079h-.042v.064h-.082v.042h-.04v-.042h-.163v-.042H167.2v.042h-.082v.042h-.042v.04h.042v.042h-.042v.04h.208v.042h.082v.04h.042v.126h-.045v.042h-.082v.042h-.126v-.042h-.082v-.042h-.084v.042h-.04v.042H167v.042h.042v.082h.042v-.042h.042v.042h.082v.042h-.042v.211h-.082v.042h.042v.126h.042v.042h-.042V25.7H167v-.042h-.045v-.042h-.042V25.7h.042v.082h0v.082h-.042v.082h-.042v.082h-.082V25.9h-.042v-.159h-.04v.126h-.082v.042h.042v.163h.042v.082h.042v.082l-.042.042v.052h-.082v-.045h-.042v.082h.042v.042h0v.042h-.042v.082h-.042v.082H166.5v.042h-.042v.082h-.042v.042h-.042v.042h-.042v.042h-.082v.042h-.04v.042h-.042v.042h-.042v.037h-.042v.042h-.042v.042H166v-.126h.042v-.042h.042V26.9h.042v-.082h.042v-.163h.042v-.042h.042v-.082h.042v-.042h-.042v-.042h-.042v.042h-.042v.042h-.042v.042h-.042v.042h0v.042h0v.121h-.042v.042H166v.042h0v.042h-.124v.042h.042v.042h-.082v.037h-.042v.042h-.062v.042h-.042v.042h-.04v.082h-.042v.042h-.042v.082h-.082v.082h-.042v.042H165.4v.163h-.042v.082h.042v.042h.042v.042h.124v.062h-.042v.042h-.082v.1h.042V28.1h.042v.126h-.042v.04h-.042v.042h-.082v.082h-.042V28.6h-.042v.208h0v.042h0v.379h.042v.082h-.082l-.042.042v.082h-.082V29.5l.042.042v.082h.082v.042l-.163.082c-.4-.04-.728-.352-1.132-.337l-.334.042-.082-.419v-.079l-.042-.126-.042-.248-.042-.126L163.273,28l.042-.163.042-.126.082-.419v-.126l-.126-.5-.042-.082v-.126h-.032v-.629l-.082-.082-.168-.211V25.2l.168-.248.042-.042v-.082l.211-.211v-.141l-.082-.211.163-.248.082-.042.082-.082.042-.377v-.082l-.126-.042v-.211l-.042-.082-.042-.082-.042-.042v-.161h.082l.126-.082.042-.042.126-.208.082-.168-.042-.211-.082-.168-.042-.082v-.461l-.163-.126v-.042l-.042-.082v-.082l-.082-.126v-.042l-.042-.082-.042-.042.042-.082v-.042l-.042-.082-.042-.082-.042-.082-.042-.042-.082.042h-.126l-.042.082v.082l-.042.042-.082.042-.082-.042-.042.042-.042.042v.042h-.146l-.126-.082h-.082l-.042.042-.248.042H162v-.082h0v-.082h.042v-.163h.042v-.042h.042v-.042h.042v-.042h.042V20.24h.042v-.168h.042V19.99h.042v-.042h.042v-.079h.042v-.05h.042V19.7h.042v-.082h.082v-.042h.042v-.082h.082V19.41h.042v-.126h.042v-.126h.042v-.042h.042v-.082h.042v-.082h.042V18.91h.042v-.082h.042v-.082h.042V18.7h.042v.042h-.042v.042h.042v-.057h0v.042h-.042v.042h.163v-.042h.042v-.042h.042v-.042h.042v-.084h.042v-.042h.042l.042-.042v-.082h.042v-.126h.042v-.079h.042V18.11h.042v-.461h.042v-.035h.042v-.126h.042v-.295h.042v-.082h.082v-.05h.042V16.97h.042v-.082h.042v-.042h.082V16.8h.042v-.082h.042v-.082h.042V16.6h.042v.042h.042V16.6h.082v.211h0v.163h-.042v.082h-.042V17.1h.082v.042h.055V17.3h.042v.126h-.042v.126h.042v.168h-.042V17.8h.042v-.042h.042v-.042h.042v-.168h.042v-.126h.082l.042.042h.082v.042h.042v.082h.126v.042l-.042.042v.042h0v-.042h.042v.042h.042v-.042h-.042v-.042h.042v-.082h.042V17.51h.042v-.082h.042v-.042h.042v-.042h.042v.082h.126v.042h0v.042h.042v.042h.042v-.126h.042v-.04h.082v-.042h.084v.042h-.02v.082h-.042v.042h.042v.042h-.042v.082h0v.126h.042v-.042h.042v-.042h-.042v-.042h.082v-.042h0v-.126h.042v.082h0v.042h0v.082h.042v.082h-.042v.168h.042V18h.042v.052h.163v.054h.042v-.05h.082v-.082H166v-.042h0V17.9h.124v.042h.163v.04h.042v.042h.082V17.9h.042v.042h.042V17.9h.042v.042h0v.082h0v.04h.042v.05h.166v-.05h.042v-.082h.042V17.9h-.042v-.035h.082v-.05h0V17.77h-.042v-.082h.042v.042h.042v-.042h.04v-.042H167v-.032h.042v.042h.166v-.042h.042v-.042h.042v.042h.042v-.042h.082v.042h.042v-.042h.042v.042h.084v.126h.082v.042h.042v.042h.163v-.082h-.042v-.082h-.042v-.047h.163v.042h.082V17.53h-.084v-.042h-.082v-.047h-.042v-.054h-.082v-.042h.208v-.082h-.042V17.22h0v-.042h.042v-.042h-.042v-.042h-.042v-.045h-.042v.082h-.042v-.082h-.042v.042h-.04v.042h-.042v-.04h-.042v.042h-.042v-.082h.042v-.126h-.042v-.042h-.082v.042h-.04V17.1h-.042v.042h0v-.126h-.04V16.97h.042v-.082h-.082v.082h-.042v.042h.042v.042h-.042V17.3h-.042v.042H167.2V17.3h.042v-.168H167.2v-.082h-.042V17.01h-.082v.042h-.042v.126h-.082v.042h-.042v.042h.042V17.3h-.082v.042h-.082v.082h-.042v-.042h-.042v-.042h-.042v.042h-.042v.126h-.042v.042h-.042v.082h-.126v.042h-.042v.042h-.042v-.042h-.042v.042h-.168v.042l-.042-.042v-.042h-.042v-.042h-.042V17.51h.042v-.042h0v-.042h-.042v-.042h-.027v-.166h0v-.042h.042v-.126h.082v-.178h.042v-.042h.042v-.042h.042v.084h.042v-.042h0V16.7h0v-.079h-.045v-.045h-.042V16.5h.126v-.042h-.042v-.04h-.042v-.248h.042V16h.042v-.042h.042V16h.042v.042h.042v.087h.042v.042h.163v.042h-.042v.05h.042V16.3h.042v.04h.042v.032h.082V16.5h-.042v.042h.042v.04h-.042v.082h.082V16.7h.082v-.042h.04V16.7H167v-.042h.082V16.7h.042v.042h.042V16.7h.042v-.042h.042v-.037h.042v-.168h-.126v-.037h-.042v-.042h-.042v-.04h-.042v-.042h.082v-.04h.042v-.082h-.042v.042l-.042-.042h-.084v-.082l-.037.037h-.042l-.042.042h-.042v-.116h0v-.042h-.042v-.042h-.126V15.88h-.042V15.8h-.042v-.054h-.082V15.7h-.082V15.66h-.082v-.027h.042v-.082h.042v-.042h.042v-.05h.042v-.042h.082v-.032h.042v.082h.042v.042h.082v-.042h.042v-.042h.042v-.082h.042V15.3h.042v.082h.04v.082H167v-.042h.042v-.037h.042V15.3h0v-.126h.042v-.139H167V15h.042v-.042h.042v-.126h.042v-.082h.042v-.079h.042V14.7h.042v-.042h-.032v-.126h0v-.042h0v-.042h-.042v-.082h.042v-.082h0v-.082h.042v-.084h.042V14.04h.042v-.082h.042Zm2.685,0v.082h.042v.042h.042v.079h.042v.126h-.042v.042h.042v.042h.042v-.042h.082v.042h-.042v.037h-.042v.042h-.295v.042h-.042v.042h-.124v-.082h.126v-.045h.042v-.042h.042V14.27h.042v-.124h-.042v-.124h.042V13.98h.042v-.042Zm-1.982.042h.042v.042h-.082v.042h.042v.077h-.042v.042h.042v.042h-.042v-.084H168v-.082h.042v-.082Zm.587.168V14.2h.082v.082h.163v.042h-.042v.074H168.7v-.042h-.015v.042h-.042v-.042H168.6v-.126h.042v-.079h.042Zm-1.679.082h.042v.042h.042v.042h-.042v.042h-.042v.082h-.035v.082h-.042v.042h.082v.168h-.04v.248h-.082v.042h-.042v.042h-.124v-.2h0v-.126h0V14.7h.042v-.042h0V14.58h.042V14.5h.042v-.082h.042v-.042h.042v-.042h.037V14.29h-.082v-.082h.082v.042H167ZM167.484,14.193Zm.545.042h.042v.042h-.042ZM167.61,14.483Zm1.05,1.385v-.126h.042v.082h-.015v.042Zm0,.168v.092h-.042v-.042h.042v-.042ZM166.057,16.918ZM165.976,17.129Zm1.6.082v.126h-.042v-.082h.042v-.042ZM165.683,17.379ZM165.641,17.379ZM165.431,17.461ZM166.731,17.624Zm.082,0v.082h-.084v-.042h-.022v-.05h.126ZM167.274,17.75ZM166.686,17.793Zm2.351.082v.042h0ZM165.976,17.916Zm4.407.211v.042h.042v.057h0v-.042h-.082v-.04h.042Zm-3.483.337h.054v.042h-.042ZM167.908,18.674ZM167.531,21.4ZM168.274,22.028ZM168.316,22.07ZM168.235,22.531ZM168.7,22.91ZM168.943,22.91Zm-3.569,13.153-.042.082h-.042v.047l-.082.042v.082l.042.042v.295h.082l.042-.042.042.042h.042V36.61h.042v-.171h.042l.042-.042v-.042h0l-.042-.04-.042-.082-.042-.042-.042-.082v-.05Zm.163-.8.082.082h.168V35.3l.042-.042h.082v.082l.042.082v.126l.082.042v.126l.042.042.042.042.082-.126h.126l.042.042h.248l.042.042.042.042v.082l-.042.042v.163l-.042.042V36.3l-.042.082-.042.042h-.082l-.042.082h-.042l-.042.042h-.042l-.126.042v.042l-.163.042c-.107.119-.1-.077-.376.248h-.042V37l-.082.042-.042.042v.042l-.163-.042L165.245,37h-.211l-.042.042.042.042h-.082v.042l-.042-.042-.042.042h-.042v-.082l-.082-.042-.126-.082-.042-.042h-.042l-.082.042-.042-.042v-.109l-.042-.163.082-.042.082-.082.126-.042.168-.211h.126l.042-.042V36.15l.042-.168v-.037l-.126-.126h-.042v-.082l.042-.042-.042-.042-.082-.042.042-.042-.082-.042h.042v-.042h.042V35.4l.042-.042.082-.042H165v-.042l.163-.082.042-.042.082-.042.042.042.082.042v.082h.126Z" transform="translate(-27.762 0)" fill="#2acbb1"/>
      <path id="Path_65513" data-name="Path 65513" d="M158.326,49.212l-.082.248v.211l.168-.042h.211l-.082.163c-.218.562-.6.669-.126,1.3l.163.082-.163-.042-.211-.082-.168-.042-.126-.042-.419-.163-.126-.035h-.126l-.168-.082v.377l.042.042.042.082.082.042.042.082.042.042.082.042.042.082v.035l.042.042c.151.211.315.416.461.629l.042.042v.042l.082.042c.218.451.528.9.8,1.343l.042.126.248.042.337.042.163-.082.337-.208.421-.211h.042l.042-.042.042-.042h.042l.168-.082.126-.082.042-.042.042.082c.634.921.386.76.211,1.637v.042a2.634,2.634,0,0,0,.168,1.174v.042l-.082.421-.463-.082-.042.126-.126.295v.126l.082.168v.126l.042.082.042.211.082.211.042.211.082.377h.042l.461,1.848.629.337h.713l.84.713-.295.755-.84.545v.634l.168.755-.211.163-.042.211v.042l.421.211-.168.248-.295.211.463.211v.211l.671.421.587,2.559h.419l.163.295-.5.461-.126.126h-.055l-1.216.042h-.082l-1.132-.163-.713-.461-.419.337-.248.168-.8.042-.461-.587-.042-.042H158.9l-.126.082-.126.211-.042.211.126.5-.168.379-.163.042h-.045l-.163.248.248.966v.042l-.082.126h-.379l.379,1.048.042.082v.545l-.8.082-.334.042.334.713v.042l.629,1.385.421,1.008-.126.248-.126.587-.545.545.5.966-.211.082-.292.082h-.042l-.211.042-.463.211-.419-.042.042-.295-.337-.163h-.082l-.334.042-.248.126-.463.163-.587.248-.713.5.042-.379.042-.5-1.556,1.132h-.163v-.409l-.295-.042-.463-.082-.163,1.092-2.938,1.8-1.427-.8-.716-.419h.042v-.037c.2-.176-.052-.017.248-.295l.082-.163c0-.144.163-.53.163-.713l.042-.163v-.082l.082-.163a5.445,5.445,0,0,0,.461-.671l.082-.168.042-.126c.339-.265.168-.424.461-.545l.042-.042.126-.126.126-.082v-.042l.042-.082.126-.248c.2-.525.5-.51.713-1.048l.042-.042v-.042l.05-.062v-.248l-.042-.042V74.772l.042-.042v-.168l-.042-.082v-.126l-.042-.042-.082-.163v-.042c-.959-.872-.434-.295-.5-1.008l-.042-.163v-.163l-.042-.211a1.714,1.714,0,0,0,0-1.05l-.042-.163-.042-.163-.126-.163-.082-.163-.042-.042h-.042l-.082-.082-.082-.126v-.324L148,70.2l-.042-.082-.042-.042-.126-.163-.042-.042v-.03l.211-.211.163-.082.168-.042.5-.248.126-.082a2.331,2.331,0,0,0,.966-.545l.168-.082.168-.042.126-.126a10.954,10.954,0,0,0,1.982-.8h.164v.027h.082v-.042l.042.042h.042l.042.042h.042l.082.042h.089l.211-.082h.126l.042.042.126.211.248.377h.168c.116.092.263.119.379.211h.042v-.042h.082v-.042h.042l.042-.042h.126l.042-.042.042.042h0l.042-.042h.042v-.042h.042V68.2h.042l.042-.042h.082v-.052H155v-.059h.042v-.042h.126v-.04h.042v-.042h.126v-.04h.047v-.025h.082v-.05h.168l.042-.042h.168v-.04h.126l.042-.042h.163l.082-.042h.082l.042-.042h.042l.042-.042h.042l.082-.042h.461l.042-.042h.337l.082-.042h.126v-.163l-.042-.042v-.163l-.042-.042.042-.042V66.9l-.042-.042a.654.654,0,0,1-.126-.295l-.042-.042-.042-.082V66.4l-.082-.082v-.082l-.292-.295V65.9c-.26-.248,0-.067-.211-.248v-.082l-.042-.042-.042-.042v-.042l-.042-.042v-.082l.042-.042.042-.042v-.064l.042-.042.042-.042.042-.042-.042-.126-.082-.379-.042-.168h-.082l-.042.042h-.042l-.082.042.042-.042v-.04l.042-.082v-.042h-.082l-.042.042h-.461l-.042.042h-.379l-.042.042h-.248c-.248-.015-.074.057-.334.042h-.042l-.042.042h-.126l-.042.042H154.6l-.042.042h-.04l-.042.042h-.04l-.042.042h-.04v.042h-.082l-.042-.042h-.042v-.042H154.1v-.05h-.082v-.042h-.082v-.042h-.124v-.042h-.042v-.04h-.042v-.042h-.042v-.042h-.039l-.042-.042h-.042l-.082-.082h-.042v-.042H153.4v-.042h-.042v-.042h-.042l-.042-.042h-.126v.042h-.211v-.042H152.8v-.215h.042v-.129h.042v-.126h.025V63.44h.163V63.4h.042l.042-.042h.042v-.042h.042v-.042h.082v-.042h.042V63.19h.042v-.037h.042v-.045h.042v-.042h.042v-.082h.042V62.9h.042v-.089h.042v-.082h.042v-.077h.042v-.082h.042v-.082h.042l.042-.042c.376-.347.448-.032.419-.671V61.7l.042-.082V60.473H154.2l-.042-.082v-.163c-.149-.669-.1-.248-.379-.8l-.042-.082-.082-.042c-.052-.156-.391-.632-.376-.743l-.042-.082L153.2,58.4l-.042-.082-.042-.082v-.082l-.042-.082v-.4l.042-.082v-.386l.082-.082.042-.042.082-.082c.223-.154.364-.391.587-.545l.126-.126-.082-.042-.042-.082-.042-.042-.082-.082-.042-.042-.126-.126.126-.126.082-.042.042-.082.168-.082.042-.082.082-.042.042-.042.082-.082.042-.042.082-.042V55.1l-.042-.082v-.163l-.042-.082v-.082l-.042-.082V54.53l-.042-.082.042-.082v-.082l-.042-.082V54.04l.042-.082v-.163l.042-.082v-.337l.042-.082v-.082l-.042-.082v-.082l-.042-.042-.042-.082-.082-.082-.042-.042v-.126h-.082V51.189l-.042-.082v-.743l.082-.126c.134-.173.248-.377.376-.545l.042-.042.042-.042.042-.082V49.48l.042-.042.042-.042v-.042l.042-.042.042-.042h1.092l.042-.042.082-.042.163-.168.126-.126.042-.042c.124-.129.121-.05.295-.248l.042-.042.042-.042h.042l.042-.042.168.042.126.042.168.042.168.082.211.042.082.082.163.168.082.082.082.082.082.042.211.042" transform="translate(-24.96 -6.687)" fill="#9174f3"/>
      <path id="Path_65514" data-name="Path 65514" d="M207.482,80.191H207.4v.082h-.042v.042h-.042v.045h.082v-.082l.042.042v-.042l-.042-.042h.042v.082H207.4v.042h.082V80.4h.126v.04h.126v.042h.126v.042h.126v.042h.124v.042h.126v.042h.082v.042h.126v.042h.082v-.042h.042v.082h.042v.042h.042v-.084h.042v.082h.042v.042h.082V80.9h.082v.042h.042v.042h.082v.042h.042v.042h.082v.082h.042V81.2h.042v.042h.042v.042h.042v.042h.082v.042h.042v.042h.042v.037h.042v.042h.042v.042h.082v.042h.042v.042h.042v.042h.082V81.7h.042v.042h.082v.042h.042v.042h.082v.042h.082v-.042h.126v.042h-.042v.042h.042v-.042h.042v.042h.042v.126h.042v.047h.126v.042h.042v.04h.126v.03h.248v.042h.042v.042h.124v.042h.126v.042h.211v.042h.964v.037h.295V82.4h.211v-.032h.052v.042h0v-.042l.042.042h.126v-.042h.211v-.042h.168v-.042h.082v-.045h.126v-.045h.082v-.04h.082v-.042h.082v-.042h.082v-.042h.082V82h.042v-.05h.042v-.042h0v-.042h0v-.042h.082v-.047h-.042v-.042h.082V81.7h.042v-.082h.082v.042h.042v-.042h.042v-.042h.042v.042h.042v.042h.042v.04h0v.042h.042v.082h.082v.042h.248v-.042h.337v-.042h.042v.042h.082v-.042h.168v-.042h.082v.042h0v.042h.042v.042h.042v.042h.042l-.082-.042-.042.042.042.042v.045l-.042-.082-.042.042.042.042-.042.042.042-.042h-.082v.042h.042v.037h.042v-.042h.124V82h.042v.042h.042V82H216v-.05h0v.042h.042v.042h.042V82h.042v-.05h.042v.082h.042v.082h.082v.042h.042v-.042h.042v.084h.042v.042h0v.042h.042v.042h0v.042h-.042v.042h-.042v.037h-.042v.042h.082v.082h.042v.082h.042v.042h-.042v.042h.042v.042h0v.042h.042V82.9h.082v.082h0v.042h.042v.042h.166v.042h.042v.042h.082v.037h0v.042H217v-.042h.084v-.032h.042V83.2h.042v.042h-.042v.042h.042v.042h.082v.042h-.082v.042h.042v.042h.163v.042h-.082v.042h0v.042h.042v-.042h.082V83.49h0v-.042h.042v-.042h.042V83.28h.042v.042H217.5v.042h.042v.082h.042v.042h.042v.042h.04v.042h.042v.042h0V83.7h0v-.042h.042v.05h.042v-.022h0v-.05h.042v.05h0v.042h.042V83.8h.037v.042h.124V83.8h.327v-.05h0V83.8h.042v.082h-.042v.05h.042v.04h-.042v.082h-.042v.042h.042V84.05h.042v-.042h0V83.84h.042V83.8h-.04v-.05h.042V83.8h0v-.042h.126V83.8h.163v.042h0v.04h0v.05H218.7v.082h-.042v.042h.082v.042h.084v.042h-.042v.04H218.7v.042h.042v.042h.124V84.3h0v.042h.042v-.126h0v-.082h-.042v-.042h-.042v-.042h.124v-.042h.042v.042h0v.042h.042v.042h.163v-.042h.042v-.042h.042v-.042h.042v.042h.042v.042h-.042v.042h-.042v.04h.042v.042h.042v-.042h.042v.042h.082V84.3h-.042v-.042h-.084V84.3h.042v.042h.042v.082h.042v.082h.042v-.042h.042v.042h.042v.042h0v.042h0v.082h.042V84.63h.042v.042h0v.082h.042v.082h0v.084h.082v.042h-.042V85h0v.042h0v.042h.042v.042h-.042v.126h.042v.159h0V85.5l.042.042v.295l.042.042V86h.057v.042h.042v.042h.042v.042h0v.03h.042v-.042h.042v.042h.042v.163h.042v.084h.042v.042h.042v.082h.042v.042h.042v.042h.082V86.7h.082v.042h.082v.042h.042v.042h.082v.042h.082V86.9h.082v.042h.126v.042h.042v.077h.042v.087h.042v.082h.042v.042h.042v.04h.042v.042h.082V87.4h.042v.042h.042v.042h.139v.042h.042v.042h.042v.042h.042v.082h.042v.042h.042v.042h.042v.042h.042v.042h.042v.035h.211v.042h.082v.042h.082v.042h.042v.042h.082V88.1h-.084v.163h.042v.042h.042v.334h.042v.248h.042v.082h.042v.082h0V89.1h.042v.082h0v.042h-.042v.042h.042V89.18h.042l.042-.042v.042h-.042v.126h.042v.082h.042v.082h.042v.042h.042v.042h.042V89.6h.042v.042h.082v.042h.042v.042h.126v.042h.082v.042h.042v.067h.042v.042h.042v.042h.042V90h.082v.042h.042v.042h.042v.037h.042v.042h.082v.042h0v.042h0v.082h-.042v.04h.042v-.022h.082V90.3h-.042v-.042h.042V90.3h.042v.126h.042v.042h.042v.144h-.042l.042.042h-.042v.295h-.042v.126h.042v.168h.042v.126h.042V91.5h.042v.082h.042v.042h.042v.082h.042v.082h.042v.082h.042v.082h.042v.082h.042v.042h.042v.042h.042V92.2h.042v.042h.042V92.3h.042v.047h.042v.04h.042v.042h.082v.04h.082v.042h.042v.042h.082V92.6h.042v.042h.082v.042h.042v.042h.082v.042h-.042v-.042h0v.082h.04v.082h.042v.206h.042v.082l.042.042v.168h.042v.082h.042v.042h.032v.079h.082v.042h0v.042h.042v.042h.042v.042h.042V93.8h.082v.042h.042v.042h.042v.057h.042v.042h.042v.04h.042v.062h.042v.04h.042v.042h.042v.04h.042v.042h.082v.042h.042v.042h.082v.082h.042v.042h.082V94.5h.082v.042h.126v.04h.082v.042h.082V94.7h.082v.042h.042v.042h.082v.04h.042v.042h.126v.042h.082v.042h.126V95h.082v.042h.126v.082h.042v.042h.042V95.2h.042v.042h.042v.042h.042v.082h.042v.042h.042v.042h.042v.082h.042v.141h.042v.082h.042v.126h.042v.126h.042v.082h.042v.082h.042v.082h.042v.126h.042v.082h.042v.042h-.082v.126h.042v.082l-1.385,1.05-1.764-.5-.882-.211L223.9,96.6l-.211-.419-.295-.337-.5-.545-.671-.716-.211-.248-1.679-1.05-.042-.248-.211-1.6-.629.042-1.385.042-.126-.461h-.126l-.334.082h-.082l.042.082v.082l.042.042-.5.082-.248-.126-.042-.042-.632-.837-.211-.248-1.008.211-.421.377-.629-.5-.295-.587-.629.421v.042l-.421.126-.292-.248-.211-.379.337-.082-.248-.292-.248-.042-.126-.042-.211-.743.126-.163-.629-.545.168-.671-.587-.5-.545-.5-.126-.5.164-.163h-.042l-.211-.295-.042-.042h-.072l-.163-.042h-.248l-.211.042L209,85.038,208.874,85l-.248-.042-.045-.743h-.337l-1.469-.042-.042-.295.042-.248.042-.126.126-.5.042-.126.042-.126-.163-.248v-.082l.042-.208.042-.042-.211-.082-.421-.042.042-.545c.012-.587.163-.52.126-1.092v-.042h.627v.042h.295v-.042h.042v-.082h.082m7.092.629h.042V81h-.082v-.047h.042Zm-4.139,1.031v-.042h-.042v-.042H210.4v-.05h-.042v-.04h-.082v-.042h0v.042h.082v.042h.042v.042h.042V81.9h.042Zm5.873-.042h.042v.042h.042v.082h0v.042h.042v.042h-.055v-.042h-.042v-.042h0v-.042h-.045v-.082ZM214.217,81.905ZM214.217,81.905Zm2.182.163v.042h0ZM216.481,82.111Zm0,.248h.042V82.4h-.042Zm.924.924h.042v.042h-.082v-.042ZM217.279,83.324Zm.126.082ZM217.824,83.654Zm1.008.163h.082v.042h.126v.082h-.124v.042h-.042v-.042h-.084v-.126ZM219.211,83.944Zm-.042,0v.042h.042v.05h-.057v.082h-.042v-.042h-.042v-.04h.084v-.082ZM218.958,84.025ZM218.79,84.025Zm.042.126V84.2h.042v.042h-.042V84.2h0v-.022h0ZM218.914,84.278ZM221.725,87.634Zm.671.337ZM222.315,87.971ZM222.441,88.013ZM228.138,96.029Z" transform="translate(-35.802 -12.442)" fill="#f99354"/>
      <path id="Path_65515" data-name="Path 65515" d="M55.99,146.343h-.248L39.51,124.672c-7.31-9.749-14.731-19.42-21.9-29.276a45.716,45.716,0,0,1-8.33-35.235A45.869,45.869,0,0,1,23.876,33.085a46.426,46.426,0,0,1,22.7-11.6c1.868-.381,3.765-.567,5.65-.825H59.51c1.409.191,2.826.334,4.226.577a47.259,47.259,0,0,1,39.04,51.745,44.94,44.94,0,0,1-8.67,22.469C86.586,105.6,78.969,115.673,71.4,125.784Zm-31.431-78.6a31.225,31.225,0,1,0,9.165-22.132,31.225,31.225,0,0,0-9.165,22.132Z" transform="translate(0 -1.649)" fill="url(#linear-gradient)"/>
    </g>
  </g>
</svg>
